<svg width="360" height="70" viewBox="0 0 360 70" fill="none" xmlns="http://www.w3.org/2000/svg">
<path d="M88.0178 31.7319V33.4099H85.4663V33.1717H85.8323C86.2335 33.1773 86.6242 33.043 86.9371 32.7919C87.0988 32.6623 87.233 32.5019 87.332 32.3199C87.431 32.1379 87.4928 31.938 87.5137 31.7319H88.0178ZM89.24 16.9893H89.4713L89.9305 18.3461L88.5737 33.4099H87.3307L89.24 16.9893ZM88.6876 32.0979V32.2118C88.6882 32.4669 88.7828 32.7128 88.9534 32.9024C89.0283 32.9987 89.1241 33.0767 89.2336 33.1305C89.343 33.1844 89.4633 33.2126 89.5853 33.2131H89.9305V33.4203H88.5288V32.1083L88.6876 32.0979ZM89.4713 16.9893L96.0935 31.3176L95.5652 33.7344L89.0329 19.5787L89.4713 16.9893ZM102.163 16.9893L102.35 18.5291L96.5734 31.3867C96.342 31.908 96.166 32.3465 96.0451 32.709C95.9274 33.0452 95.8429 33.3921 95.7931 33.7448H95.5618L95.2407 32.2947L102.163 16.9893ZM102.439 32.0979H102.602V33.4099H101.2V33.2027H101.545C101.669 33.2046 101.792 33.1775 101.903 33.1236C102.015 33.0696 102.112 32.9903 102.187 32.892C102.353 32.7004 102.443 32.4547 102.439 32.2015V32.0875V32.0979ZM102.36 16.9893L104.338 33.4099H102.546L101.279 19.4717L102.153 16.9893H102.36ZM103.648 31.7319H104.131C104.185 32.1512 104.399 32.5335 104.728 32.7988C105.036 33.045 105.419 33.1768 105.813 33.1717H106.182V33.403H103.651L103.648 31.7319Z" fill="white"/>
<path d="M109.842 31.7319C109.738 31.9792 109.722 32.2547 109.797 32.5122C109.864 32.7149 109.998 32.889 110.177 33.0059C110.335 33.115 110.523 33.175 110.715 33.1786H110.922V33.4099H106.299V33.1717H106.506C106.896 33.1571 107.274 33.0379 107.601 32.8264C108.015 32.5558 108.338 32.1674 108.53 31.7112L109.842 31.7319ZM114.789 16.9893L114.996 18.5982L109.224 33.3408H107.843L113.729 19.3612C113.895 18.978 114.04 18.65 114.154 18.3738C114.268 18.0975 114.368 17.8282 114.451 17.5693C114.521 17.3842 114.564 17.19 114.579 16.9927L114.789 16.9893ZM118.031 27.1296V27.8201H110.829V27.1296H118.031ZM114.789 16.9893L121.598 33.2718H119.623L114.327 19.1748L114.789 16.9893ZM119.067 31.7319H120.952C121.133 32.1912 121.455 32.5815 121.871 32.8471C122.202 33.058 122.583 33.1772 122.975 33.1924H123.158V33.4237H117.98V33.1717H118.187C118.336 33.1686 118.484 33.133 118.619 33.0674C118.753 33.0019 118.872 32.9079 118.967 32.7919C119.083 32.6431 119.154 32.464 119.171 32.2761C119.188 32.0882 119.151 31.8993 119.064 31.7319H119.067Z" fill="white"/>
<path d="M126.124 18.9935H126.055C126.047 18.6028 125.886 18.2309 125.606 17.9578C125.473 17.8186 125.312 17.7089 125.133 17.6358C124.955 17.5626 124.763 17.5276 124.57 17.5331H124.273V17.3018H126.114L126.124 18.9935ZM126.124 31.7337V33.4117H124.284V33.1734H124.581C124.773 33.1789 124.965 33.1439 125.144 33.0707C125.322 32.9976 125.483 32.8879 125.616 32.7488C125.896 32.4756 126.057 32.1037 126.065 31.713L126.124 31.7337ZM127.564 17.3121V33.4117H126.069V17.3121H127.564ZM130.505 17.3121C131.143 17.3033 131.777 17.4049 132.38 17.6125C132.905 17.7874 133.384 18.0776 133.782 18.4618C134.18 18.8459 134.486 19.3143 134.68 19.8325C134.896 20.4096 135.001 21.0222 134.99 21.6382C134.99 22.374 134.813 23.0989 134.472 23.7512C134.146 24.4063 133.665 24.9716 133.071 25.3981C132.492 25.8156 131.795 26.037 131.082 26.03C131.408 26.1868 131.697 26.4102 131.931 26.686C132.213 26.9918 132.477 27.3134 132.722 27.6492C133.136 28.2454 133.501 28.7587 133.816 29.1891C134.132 29.6195 134.449 30.0419 134.769 30.4562C135.09 30.8671 135.367 31.1985 135.598 31.4437C135.885 31.762 136.192 32.0619 136.516 32.3413C136.818 32.5964 137.155 32.8058 137.518 32.9628C137.901 33.1193 138.312 33.1968 138.726 33.1907V33.422H137.459C136.313 33.458 135.196 33.0596 134.331 32.3068C134.01 32.0222 133.71 31.7153 133.433 31.3884C133.385 31.3263 133.261 31.1502 133.053 30.8567C132.846 30.5633 132.601 30.218 132.318 29.8209L131.479 28.616C131.203 28.2155 130.965 27.8771 130.764 27.5802L130.419 27.0865C130.131 26.7046 129.807 26.3509 129.452 26.03C129.145 25.7271 128.734 25.554 128.303 25.5466V25.3153C128.779 25.3153 129.187 25.3153 129.521 25.3153C129.963 25.295 130.403 25.2338 130.833 25.1323C131.324 25.019 131.781 24.7906 132.166 24.4659C132.625 24.0564 132.953 23.5208 133.109 22.9261C133.164 22.7176 133.203 22.5052 133.226 22.2908C133.256 22.0434 133.264 21.7938 133.25 21.545C133.28 20.6465 132.999 19.7651 132.456 19.0488C132.204 18.742 131.888 18.4939 131.53 18.3216C131.173 18.1492 130.782 18.0569 130.385 18.051C129.953 18.0199 129.511 18.0061 129.062 18.0164C128.613 18.0268 128.075 18.0164 127.464 18.0164C127.448 17.9497 127.428 17.884 127.405 17.8197L127.232 17.3018L130.505 17.3121ZM127.495 31.7337H127.564C127.56 31.9272 127.596 32.1194 127.671 32.2978C127.746 32.4763 127.858 32.6369 127.999 32.7695C128.134 32.906 128.296 33.0139 128.474 33.0869C128.652 33.1598 128.842 33.1963 129.035 33.1941H129.311V33.4255H127.495V31.7337Z" fill="white"/>
<path d="M141.001 18.9935H140.932C140.924 18.6028 140.763 18.2309 140.483 17.9578C140.35 17.8186 140.189 17.7089 140.01 17.6358C139.832 17.5626 139.64 17.5276 139.447 17.5331H139.147V17.3018H140.987L141.001 18.9935ZM141.001 31.7337V33.4117H139.161V33.1734H139.461C139.654 33.1789 139.846 33.1439 140.024 33.0707C140.202 32.9976 140.364 32.8879 140.497 32.7488C140.776 32.4756 140.938 32.1037 140.946 31.713L141.001 31.7337ZM142.427 17.3121V33.4117H140.932V17.3121H142.427ZM142.358 18.9935V17.3121H144.198V17.5434H143.898C143.705 17.538 143.513 17.573 143.335 17.6461C143.157 17.7193 142.995 17.8289 142.862 17.9681C142.581 18.2404 142.42 18.6128 142.413 19.0039L142.358 18.9935ZM142.358 31.7337H142.427C142.43 31.9274 142.471 32.1185 142.548 32.2962C142.625 32.474 142.737 32.6348 142.876 32.7695C143.009 32.9086 143.17 33.0183 143.349 33.0915C143.527 33.1646 143.719 33.1996 143.912 33.1941H144.212V33.4255H142.372L142.358 31.7337Z" fill="white"/>
<path d="M148.497 31.7904V33.4235H146.587V33.1714H147.026C147.393 33.1679 147.744 33.022 148.006 32.7643C148.268 32.5066 148.419 32.1574 148.428 31.7904H148.497ZM148.452 16.9787L149.463 18.2699L149.488 33.4235H148.428V19.8409C148.415 18.879 148.346 17.9186 148.22 16.9648L148.452 16.9787ZM148.452 16.9787L161.813 31.238L162.021 33.7446L148.659 19.4956L148.452 16.9787ZM149.488 31.7904C149.497 32.1574 149.648 32.5066 149.909 32.7643C150.171 33.022 150.522 33.1679 150.889 33.1714H151.324V33.4027H149.419V31.7904H149.488ZM159.12 17.3239H161.03V18.957H160.985C160.978 18.582 160.825 18.2244 160.56 17.9592C160.43 17.8271 160.274 17.7231 160.101 17.6536C159.929 17.5842 159.745 17.5507 159.559 17.5552H159.12V17.3239ZM162.021 17.3239V30.7891C162.021 31.2794 162.021 31.7489 162.065 32.2012C162.11 32.6535 162.148 33.1645 162.228 33.7307H162.021L160.985 32.512V17.3205L162.021 17.3239ZM163.861 17.3239V17.5552H163.447C163.263 17.5533 163.081 17.588 162.91 17.6573C162.74 17.7267 162.586 17.8293 162.456 17.9592C162.32 18.0881 162.212 18.2428 162.137 18.4141C162.063 18.5855 162.023 18.7701 162.021 18.957H161.952V17.3101L163.861 17.3239Z" fill="white"/>
<path d="M167.859 31.7319C167.755 31.9792 167.739 32.2547 167.814 32.5122C167.882 32.7149 168.015 32.889 168.194 33.0059C168.353 33.115 168.54 33.175 168.733 33.1786H168.94V33.4099H164.32V33.1717H164.527C164.916 33.1572 165.293 33.0379 165.618 32.8264C166.034 32.557 166.359 32.1683 166.551 31.7112L167.859 31.7319ZM172.793 16.9893L173 18.5982L167.227 33.3408H165.846L171.757 19.3612C171.926 18.978 172.068 18.65 172.182 18.3738C172.296 18.0975 172.396 17.8282 172.482 17.5693C172.55 17.3837 172.592 17.1897 172.607 16.9927L172.793 16.9893ZM176.035 27.1296V27.8201H168.85V27.1296H176.035ZM172.793 16.9893L179.602 33.2718H177.647L172.344 19.1748L172.793 16.9893ZM177.071 31.7319H178.956C179.137 32.1922 179.46 32.5828 179.878 32.8471C180.208 33.0579 180.588 33.1771 180.979 33.1924H181.166V33.4237H175.987V33.1717H176.194C176.344 33.1686 176.491 33.133 176.626 33.0674C176.76 33.0019 176.879 32.9079 176.974 32.7919C177.092 32.6441 177.165 32.4656 177.184 32.2776C177.202 32.0897 177.167 31.9002 177.081 31.7319H177.071Z" fill="white"/>
<path d="M203 26.6961L202.724 30.3076C202.32 30.9714 201.81 31.565 201.215 32.065C200.581 32.5959 199.857 33.0087 199.078 33.2837C198.172 33.5973 197.219 33.7492 196.26 33.7326C194.776 33.7467 193.312 33.3832 192.007 32.6761C190.78 32.0018 189.771 30.9923 189.096 29.7655C188.375 28.404 188.019 26.8793 188.06 25.3393C188.025 23.8142 188.382 22.3057 189.096 20.9579C189.768 19.7267 190.778 18.7133 192.007 18.037C193.36 17.3172 194.877 16.9603 196.409 17.0012C197.449 16.9865 198.486 17.138 199.478 17.45C200.318 17.7154 201.119 18.0904 201.861 18.5652L202.32 21.8072H202.113C201.84 20.5567 201.099 19.4581 200.041 18.7379C199.275 18.206 198.401 17.8485 197.481 17.6905C196.562 17.5325 195.619 17.5779 194.719 17.8234C193.819 18.0689 192.983 18.5086 192.272 19.1116C191.56 19.7145 190.988 20.4661 190.598 21.3135C190.031 22.5734 189.752 23.9441 189.783 25.3255C189.753 26.7112 190.032 28.0862 190.598 29.3512C191.093 30.442 191.882 31.3734 192.877 32.0408C193.889 32.6935 195.067 33.0411 196.271 33.0421C197.31 33.0512 198.34 32.8443 199.295 32.4344C200.249 32.0044 201.059 31.3093 201.629 30.4319C202.258 29.5112 202.656 28.2659 202.824 26.6961H203Z" fill="white"/>
<path d="M207.367 18.9935H207.298C207.292 18.6025 207.13 18.23 206.849 17.9578C206.716 17.8186 206.555 17.7089 206.376 17.6358C206.198 17.5626 206.006 17.5276 205.814 17.5331H205.513V17.3018H207.353L207.367 18.9935ZM207.367 31.7337V33.4117H205.527V33.1734H205.827C206.02 33.1789 206.212 33.1439 206.39 33.0707C206.569 32.9976 206.73 32.8879 206.863 32.7488C207.002 32.6141 207.114 32.4533 207.191 32.2755C207.268 32.0978 207.309 31.9066 207.312 31.713L207.367 31.7337ZM208.793 17.3121V33.4117H207.298V17.3121H208.793ZM218.405 25.1081V25.7986H208.562V25.1081H218.405ZM208.738 18.9935V17.3121H210.578V17.5434H210.278C210.085 17.538 209.893 17.573 209.715 17.6461C209.537 17.7193 209.375 17.8289 209.242 17.9681C208.962 18.2412 208.801 18.6132 208.793 19.0039L208.738 18.9935ZM208.738 31.7337H208.807C208.815 32.1244 208.976 32.4964 209.256 32.7695C209.389 32.9086 209.55 33.0183 209.729 33.0915C209.907 33.1646 210.099 33.1996 210.292 33.1941H210.592V33.4255H208.752L208.738 31.7337ZM218.281 18.9935H218.212C218.216 18.8 218.179 18.6079 218.104 18.4294C218.03 18.251 217.918 18.0903 217.777 17.9578C217.641 17.8216 217.48 17.7138 217.302 17.6409C217.124 17.568 216.933 17.5313 216.741 17.5331H216.441V17.3018H218.281V18.9935ZM218.281 31.7337V33.4117H216.441V33.1734H216.741C216.933 33.1752 217.124 33.1385 217.302 33.0656C217.48 32.9927 217.641 32.885 217.777 32.7488C217.918 32.6162 218.03 32.4555 218.104 32.2771C218.179 32.0987 218.216 31.9065 218.212 31.713L218.281 31.7337ZM219.707 17.3121V33.4117H218.212V17.3121H219.707ZM219.638 18.9935V17.3121H221.475V17.5434H221.174C220.982 17.538 220.79 17.573 220.611 17.6461C220.433 17.7193 220.272 17.8289 220.138 17.9681C219.859 18.2412 219.698 18.6132 219.69 19.0039L219.638 18.9935ZM219.638 31.7337H219.707C219.715 32.1244 219.876 32.4964 220.156 32.7695C220.289 32.9086 220.45 33.0183 220.629 33.0915C220.807 33.1646 220.999 33.1996 221.192 33.1941H221.475V33.4255H219.634L219.638 31.7337Z" fill="white"/>
<path d="M226.063 18.9922H225.994C225.998 18.7985 225.961 18.6061 225.885 18.4277C225.81 18.2492 225.698 18.0887 225.556 17.9564C225.421 17.8196 225.259 17.7115 225.081 17.6385C224.903 17.5655 224.713 17.5292 224.52 17.5318H224.237L224.213 17.3004H226.053L226.063 18.9922ZM226.063 31.7324V33.4103H224.237V33.1721H224.537C224.73 33.1776 224.922 33.1426 225.1 33.0694C225.279 32.9963 225.44 32.8866 225.573 32.7474C225.712 32.6127 225.824 32.4519 225.901 32.2742C225.978 32.0965 226.019 31.9053 226.022 31.7117L226.063 31.7324ZM227.489 17.3108V33.4103H225.994V17.3108H227.489ZM233.704 17.3108V18.0255H227.42V17.3108H233.704ZM232.717 25.131V25.8215H227.42V25.131H232.717ZM233.704 32.6957V33.4103H227.42V32.6957H233.704ZM235.109 29.685L233.766 33.4103H229.951L230.776 32.6957C231.461 32.7227 232.142 32.5928 232.768 32.3159C233.27 32.072 233.701 31.705 234.022 31.249C234.36 30.7593 234.644 30.235 234.871 29.685H235.109ZM233.704 16.9103V17.5663L230.901 17.3108C231.258 17.3106 231.616 17.2875 231.971 17.2417C232.344 17.1969 232.693 17.1451 233.007 17.0829C233.243 17.0453 233.474 16.9828 233.697 16.8965L233.704 16.9103ZM232.717 23.674V25.1897H231.384V25.1448C231.679 25.1369 231.96 25.0129 232.164 24.7995C232.268 24.6951 232.35 24.5711 232.405 24.4347C232.46 24.2984 232.487 24.1525 232.485 24.0054V23.6843L232.717 23.674ZM232.717 25.787V27.3027H232.485V26.9574C232.487 26.8104 232.46 26.6644 232.405 26.5281C232.35 26.3917 232.268 26.2677 232.164 26.1633C232.066 26.0536 231.946 25.9661 231.811 25.9066C231.677 25.8471 231.531 25.8169 231.384 25.818V25.7697L232.717 25.787ZM233.704 17.9702V19.8105H233.476V19.3962C233.478 19.2188 233.445 19.0429 233.378 18.8787C233.311 18.7144 233.212 18.5652 233.086 18.4398C232.833 18.1758 232.485 18.023 232.119 18.0151V17.9702H233.704Z" fill="white"/>
<path d="M239.104 18.9935H239.035C239.027 18.6028 238.866 18.2309 238.586 17.9578C238.452 17.8196 238.291 17.7106 238.112 17.6375C237.934 17.5645 237.743 17.5289 237.55 17.5331H237.253V17.3018H239.094L239.104 18.9935ZM239.104 31.7337V33.4117H237.264V33.1734H237.561C237.753 33.1776 237.945 33.142 238.123 33.069C238.301 32.9959 238.462 32.8869 238.596 32.7488C238.876 32.4756 239.037 32.1037 239.045 31.713L239.104 31.7337ZM240.53 17.3121V33.4117H239.035V17.3121H240.53ZM243.472 17.3121C244.109 17.3033 244.743 17.4049 245.346 17.6125C245.871 17.7874 246.35 18.0776 246.748 18.4618C247.146 18.8459 247.453 19.3143 247.646 19.8325C247.862 20.4096 247.967 21.0222 247.957 21.6382C247.956 22.374 247.779 23.0989 247.439 23.7512C247.113 24.4063 246.631 24.9716 246.037 25.3981C245.458 25.8156 244.762 26.037 244.048 26.03C244.374 26.1868 244.663 26.4102 244.898 26.686C245.184 26.9914 245.452 27.313 245.702 27.6492C246.116 28.2465 246.479 28.761 246.796 29.1891C247.114 29.6172 247.428 30.0419 247.749 30.4562C248.07 30.8705 248.347 31.1985 248.578 31.4437C248.865 31.762 249.172 32.0619 249.496 32.3413C249.798 32.5964 250.135 32.8058 250.498 32.9628C250.881 33.1193 251.292 33.1968 251.706 33.1907V33.422H250.439C249.293 33.458 248.176 33.0596 247.311 32.3068C246.992 32.0254 246.693 31.722 246.417 31.3988C246.368 31.3366 246.244 31.1606 246.037 30.8671C245.83 30.5736 245.585 30.2283 245.301 29.8313C245.018 29.4342 244.739 29.0234 244.459 28.6263C244.179 28.2293 243.948 27.8875 243.748 27.5906L243.403 27.0968C243.113 26.7158 242.79 26.3621 242.436 26.0403C242.129 25.7375 241.717 25.5644 241.286 25.557V25.3256C241.763 25.3256 242.17 25.3256 242.505 25.3256C242.947 25.3054 243.386 25.2441 243.817 25.1426C244.365 25.0241 244.868 24.7547 245.271 24.3648C245.674 23.9749 245.959 23.4802 246.096 22.9364C246.148 22.7275 246.186 22.5152 246.21 22.3011C246.24 22.0538 246.247 21.8041 246.23 21.5554C246.263 20.657 245.983 19.775 245.44 19.0591C245.187 18.7524 244.871 18.5042 244.514 18.3319C244.156 18.1596 243.765 18.0673 243.368 18.0613C242.936 18.0303 242.494 18.0164 242.046 18.0268C241.597 18.0372 241.058 18.0268 240.447 18.0268C240.431 17.9601 240.412 17.8944 240.388 17.83C240.35 17.7161 240.292 17.5434 240.216 17.3121H243.472ZM240.464 31.7337H240.533C240.529 31.9272 240.566 32.1194 240.641 32.2978C240.716 32.4763 240.827 32.6369 240.968 32.7695C241.104 32.9062 241.265 33.0142 241.443 33.0872C241.621 33.1601 241.812 33.1965 242.004 33.1941H242.28V33.4255H240.464V31.7337Z" fill="white"/>
<path d="M253.705 31.7904V33.4235H251.796V33.1714H252.234C252.602 33.1679 252.953 33.022 253.214 32.7643C253.476 32.5066 253.627 32.1574 253.636 31.7904H253.705ZM253.66 16.9787L254.672 18.2699L254.693 33.4235H253.636V19.8409C253.624 18.879 253.554 17.9186 253.429 16.9648L253.66 16.9787ZM253.66 16.9787L267.018 31.238L267.226 33.7446L253.867 19.4956L253.66 16.9787ZM254.696 31.7904C254.705 32.1574 254.856 32.5066 255.118 32.7643C255.379 33.022 255.731 33.1679 256.098 33.1714H256.533V33.4027H254.62V31.7904H254.696ZM264.332 17.3239H266.242V18.957H266.197C266.19 18.5813 266.036 18.2232 265.769 17.9592C265.639 17.827 265.483 17.723 265.312 17.6535C265.14 17.584 264.956 17.5505 264.771 17.5552H264.332V17.3239ZM267.229 17.3239V30.7891C267.229 31.2794 267.229 31.7489 267.277 32.2012C267.326 32.6535 267.36 33.1645 267.436 33.7307H267.229L266.193 32.512V17.3205L267.229 17.3239ZM269.069 17.3239V17.5552H268.655C268.472 17.5537 268.29 17.5887 268.121 17.658C267.951 17.7274 267.797 17.8297 267.668 17.9592C267.532 18.0884 267.424 18.2431 267.349 18.4143C267.273 18.5856 267.233 18.77 267.229 18.957H267.163V17.3101L269.069 17.3239Z" fill="white"/>
<path d="M274.424 18.9694L272.494 18.9003C272.247 18.5208 271.92 18.1993 271.537 17.9578C271.137 17.6858 270.664 17.5414 270.181 17.5434H269.856V17.3121H275.515V17.5434H275.214C275.054 17.541 274.897 17.5842 274.761 17.668C274.624 17.7517 274.515 17.8726 274.444 18.0164C274.361 18.1605 274.315 18.3236 274.311 18.4902C274.307 18.6569 274.346 18.8218 274.424 18.9694ZM273.55 17.3363L278.059 25.7296L277.062 26.5341L271.572 17.3363H273.55ZM276.93 31.7337V33.4117H275.114V33.1734H275.415C275.607 33.1789 275.799 33.1439 275.978 33.0707C276.156 32.9976 276.317 32.8879 276.45 32.7488C276.73 32.4756 276.891 32.1037 276.899 31.713L276.93 31.7337ZM278.38 26.0058V33.4117H276.885V26.0058H278.38ZM282.472 17.3363H283.874L278.218 26.4892L277.39 26.2371L282.472 17.3363ZM278.329 31.7337H278.398C278.394 31.9272 278.43 32.1194 278.505 32.2978C278.58 32.4763 278.692 32.6369 278.833 32.7695C278.968 32.906 279.13 33.0139 279.308 33.0869C279.486 33.1598 279.676 33.1963 279.869 33.1941H280.145V33.4255H278.329V31.7337ZM281.547 18.959C281.613 18.8648 281.657 18.7572 281.677 18.6438C281.697 18.5304 281.691 18.414 281.66 18.303C281.603 18.0885 281.483 17.8961 281.315 17.7506C281.156 17.6096 280.951 17.5322 280.739 17.5331H280.462V17.3018H285.555V17.5331H285.23C284.755 17.5338 284.29 17.6782 283.898 17.9474C283.512 18.1965 283.177 18.5164 282.91 18.89L281.547 18.959Z" fill="white"/>
<path d="M291.073 16.9898C291.339 16.9916 291.604 17.0077 291.867 17.0382C292.15 17.0658 292.427 17.1107 292.696 17.1624C292.965 17.2142 293.207 17.2695 293.431 17.3247C293.61 17.3625 293.784 17.4204 293.949 17.4974V20.0523H293.742C293.756 19.7256 293.695 19.4001 293.563 19.1008C293.431 18.8015 293.233 18.5365 292.983 18.326C292.42 17.89 291.721 17.6671 291.009 17.6968C290.298 17.7265 289.62 18.0069 289.095 18.4883C288.846 18.7279 288.649 19.0155 288.515 19.3336C288.381 19.6516 288.313 19.9936 288.315 20.3389C288.324 20.6921 288.39 21.0417 288.508 21.3746C288.656 21.7934 288.905 22.1692 289.233 22.4691L293.766 26.6123C294.183 26.986 294.495 27.4621 294.671 27.9933C294.819 28.4542 294.897 28.935 294.902 29.4192C294.925 29.9886 294.834 30.5568 294.634 31.0904C294.434 31.6241 294.13 32.1123 293.739 32.5266C293.327 32.9325 292.835 33.2483 292.295 33.454C291.755 33.6597 291.178 33.7507 290.6 33.7212C290.165 33.7156 289.731 33.6775 289.302 33.6073C288.805 33.53 288.318 33.3944 287.852 33.2033C287.426 33.0408 287.036 32.7956 286.706 32.4817C286.654 32.1773 286.631 31.8686 286.637 31.5599C286.639 31.1715 286.669 30.7838 286.726 30.3998C286.781 30.0217 286.866 29.6487 286.982 29.2846H287.189C287.097 29.9814 287.199 30.6901 287.486 31.332C287.741 31.8883 288.163 32.3508 288.694 32.6543C289.246 32.9572 289.872 33.0962 290.5 33.0548C291.305 33.0243 292.074 32.7114 292.672 32.171C292.975 31.8938 293.213 31.5534 293.37 31.174C293.527 30.7946 293.599 30.3853 293.58 29.9751C293.586 29.5611 293.509 29.1501 293.352 28.7667C293.2 28.4106 292.971 28.0923 292.682 27.8345L288.27 23.7293C287.837 23.3429 287.506 22.8571 287.303 22.3138C287.13 21.8543 287.036 21.3685 287.027 20.8775C287.027 20.228 287.185 19.5883 287.486 19.0131C287.803 18.4079 288.281 17.9024 288.867 17.5526C289.536 17.1637 290.3 16.9688 291.073 16.9898ZM293.949 17.2211V17.7045H292.202V17.2211H293.949Z" fill="white"/>
<path d="M299.446 18.9935H299.377C299.369 18.6028 299.207 18.2309 298.928 17.9578C298.795 17.8186 298.633 17.7089 298.455 17.6358C298.277 17.5626 298.085 17.5276 297.892 17.5331H297.595V17.3018H299.435L299.446 18.9935ZM299.446 31.7337V33.4117H297.606V33.1734H297.903C298.095 33.1789 298.287 33.1439 298.465 33.0707C298.644 32.9976 298.805 32.8879 298.938 32.7488C299.218 32.4756 299.379 32.1037 299.387 31.713L299.446 31.7337ZM300.886 17.3121V33.4117H299.391V17.3121H300.886ZM310.484 25.1081V25.7986H300.64V25.1081H310.484ZM300.817 18.9935V17.3121H302.653V17.5434H302.356C302.164 17.5393 301.972 17.5748 301.794 17.6479C301.616 17.721 301.455 17.83 301.321 17.9681C301.041 18.2407 300.881 18.6133 300.875 19.0039L300.817 18.9935ZM300.817 31.7337H300.886C300.888 31.9271 300.929 32.1182 301.005 32.296C301.082 32.4737 301.192 32.6346 301.331 32.7695C301.465 32.9076 301.626 33.0166 301.805 33.0897C301.983 33.1628 302.174 33.1983 302.367 33.1941H302.664V33.4255H300.827L300.817 31.7337ZM310.36 18.9935H310.29C310.294 18.7998 310.257 18.6074 310.181 18.429C310.106 18.2505 309.994 18.09 309.852 17.9578C309.717 17.8209 309.555 17.7128 309.377 17.6398C309.199 17.5668 309.009 17.5305 308.816 17.5331H308.516V17.3018H310.356L310.36 18.9935ZM310.36 31.7337V33.4117H308.519V33.1734H308.82C309.012 33.176 309.203 33.1397 309.381 33.0667C309.559 32.9937 309.72 32.8856 309.855 32.7488C309.997 32.6165 310.109 32.456 310.185 32.2775C310.26 32.0991 310.298 31.9067 310.294 31.713L310.36 31.7337ZM311.785 17.3121V33.4117H310.277V17.3121H311.785ZM311.716 18.9935V17.3121H313.557V17.5434H313.256C313.064 17.538 312.872 17.573 312.693 17.6461C312.515 17.7193 312.354 17.8289 312.221 17.9681C312.081 18.1025 311.969 18.2632 311.892 18.441C311.815 18.6188 311.774 18.8101 311.772 19.0039L311.716 18.9935ZM311.716 31.7337H311.785C311.788 31.9275 311.829 32.1189 311.906 32.2967C311.983 32.4745 312.095 32.6352 312.234 32.7695C312.368 32.9086 312.529 33.0183 312.707 33.0915C312.886 33.1646 313.077 33.1996 313.27 33.1941H313.57V33.4255H311.73L311.716 31.7337Z" fill="white"/>
<path d="M318.149 18.9922H318.08C318.083 18.7985 318.046 18.6061 317.971 18.4277C317.895 18.2492 317.783 18.0887 317.641 17.9564C317.506 17.8198 317.345 17.7117 317.167 17.6388C316.989 17.5658 316.798 17.5294 316.606 17.5318H316.329L316.309 17.3004H318.149V18.9922ZM318.149 31.7324V33.4103H316.309V33.1721H316.606C316.798 33.1763 316.989 33.1407 317.168 33.0677C317.346 32.9946 317.507 32.8856 317.641 32.7474C317.921 32.4743 318.082 32.1024 318.09 31.7117L318.149 31.7324ZM319.575 17.3108V33.4103H318.08V17.3108H319.575ZM325.789 17.3108V18.0255H319.499V17.3108H325.789ZM324.802 25.131V25.8215H319.499V25.131H324.802ZM325.789 32.6957V33.4103H319.499V32.6957H325.789ZM327.191 29.685L325.859 33.4103H322.026L322.855 32.6957C323.538 32.7222 324.218 32.5923 324.843 32.3159C325.344 32.073 325.773 31.7056 326.09 31.249C326.429 30.7594 326.715 30.2351 326.943 29.685H327.191ZM325.789 16.9103V17.5663L322.983 17.3108C323.34 17.3107 323.698 17.2876 324.053 17.2417C324.429 17.1969 324.778 17.1451 325.089 17.0829C325.323 17.0446 325.554 16.9821 325.776 16.8965L325.789 16.9103ZM324.802 23.674V25.1897H323.466V25.1448C323.762 25.1364 324.043 25.0125 324.25 24.7995C324.353 24.6951 324.435 24.5711 324.49 24.4347C324.545 24.2984 324.573 24.1525 324.571 24.0054V23.6843L324.802 23.674ZM324.802 25.787V27.3027H324.571V26.9574C324.573 26.8104 324.545 26.6644 324.49 26.5281C324.435 26.3917 324.353 26.2677 324.25 26.1633C324.15 26.0542 324.029 25.9672 323.894 25.9077C323.759 25.8482 323.613 25.8177 323.466 25.818V25.7697L324.802 25.787ZM325.789 17.9702V19.8105H325.558V19.3962C325.561 19.2187 325.528 19.0425 325.461 18.8782C325.394 18.7139 325.294 18.5648 325.168 18.4398C324.915 18.1758 324.567 18.023 324.201 18.0151V17.9702H325.789Z" fill="white"/>
<path d="M332.076 18.9694L330.167 18.9935C329.988 18.5329 329.666 18.1419 329.248 17.8783C328.918 17.6662 328.536 17.5469 328.143 17.5331H327.96V17.3018H333.139V17.5331H332.932C332.785 17.5364 332.64 17.5711 332.507 17.6348C332.375 17.6985 332.257 17.7897 332.162 17.9025C331.934 18.158 331.907 18.5102 332.076 18.9694ZM336.63 33.7328L329.5 17.4502H331.454L337.089 31.5473L336.63 33.7328ZM336.63 33.7328L336.423 32.1238L342.537 17.3812H343.918L337.704 31.3643C337.535 31.7475 337.393 32.0755 337.279 32.3517C337.165 32.6279 337.062 32.8972 336.979 33.1596C336.911 33.344 336.869 33.5369 336.854 33.7328H336.63ZM341.895 18.9694C342.066 18.509 342.034 18.1569 341.802 17.9129C341.706 17.7988 341.587 17.7067 341.452 17.643C341.317 17.5792 341.171 17.5453 341.022 17.5434H340.815V17.3121H345.424V17.5434H345.217C344.832 17.5596 344.459 17.6788 344.136 17.8887C343.714 18.1552 343.384 18.5443 343.19 19.0039L341.895 18.9694Z" fill="white"/>
<path d="M346.114 31.7319C346.009 31.9789 345.992 32.2542 346.066 32.5122C346.134 32.7143 346.268 32.888 346.446 33.0059C346.606 33.115 346.794 33.175 346.988 33.1786H347.195V33.4099H342.562V33.1717H342.769C343.157 33.1577 343.534 33.0384 343.86 32.8264C344.276 32.557 344.6 32.1683 344.792 31.7112L346.114 31.7319ZM351.058 16.9893L351.266 18.5982L345.493 33.3408H344.112L349.992 19.3612L350.416 18.3738C350.53 18.0975 350.63 17.8282 350.713 17.5693C350.783 17.3842 350.826 17.19 350.841 16.9927L351.058 16.9893ZM354.3 27.1296V27.8201H347.091V27.1296H354.3ZM351.058 16.9893L357.853 33.2718H355.899L350.603 19.1748L351.058 16.9893ZM355.336 31.7319H357.221C357.401 32.1919 357.723 32.5826 358.14 32.8471C358.471 33.058 358.852 33.1772 359.245 33.1924H359.428V33.4237H354.249V33.1717H354.456C354.606 33.1686 354.753 33.133 354.888 33.0674C355.022 33.0019 355.141 32.9079 355.236 32.7919C355.464 32.5467 355.492 32.1911 355.326 31.7319H355.336Z" fill="white"/>
<path d="M86.9166 45.6056H86.8787C86.8805 45.4986 86.8599 45.3923 86.8183 45.2936C86.7767 45.1949 86.7149 45.106 86.637 45.0325C86.4824 44.8805 86.2738 44.7961 86.0569 44.7977H85.905V44.6665H86.9408L86.9166 45.6056ZM86.9166 52.7146V53.6537H85.8809V53.5225H86.0466C86.1531 53.5248 86.259 53.5051 86.3576 53.4647C86.4562 53.4243 86.5454 53.3641 86.6197 53.2877C86.7751 53.1371 86.8645 52.931 86.8683 52.7146H86.9166ZM87.7142 44.6665V53.6433H86.8787V44.6665H87.7142ZM90.2415 44.6665C91.0814 44.6459 91.9129 44.8383 92.6583 45.2259C93.3361 45.587 93.8976 46.1329 94.2776 46.8003C94.6607 47.5272 94.861 48.3366 94.861 49.1584C94.861 49.9802 94.6607 50.7895 94.2776 51.5165C93.8946 52.1807 93.3338 52.7247 92.6583 53.0875C91.9141 53.479 91.0822 53.6739 90.2415 53.6537H87.4794V53.267H90.2415C90.906 53.2909 91.5629 53.1187 92.1302 52.7718C92.6975 52.4249 93.1502 51.9187 93.4317 51.3163C93.7323 50.6372 93.8876 49.9028 93.8876 49.1601C93.8876 48.4175 93.7323 47.683 93.4317 47.004C93.1504 46.4139 92.7075 45.9159 92.1543 45.5677C91.5786 45.2176 90.9151 45.0392 90.2415 45.0532H87.3551V44.6665H90.2415Z" fill="white"/>
<path d="M100.979 44.4885C101.822 44.47 102.655 44.6723 103.396 45.0754C104.081 45.455 104.645 46.0213 105.022 46.7085C105.405 47.4693 105.605 48.3095 105.605 49.1616C105.605 50.0137 105.405 50.8539 105.022 51.6147C104.645 52.3019 104.081 52.8681 103.396 53.2478C102.653 53.6333 101.828 53.8346 100.991 53.8346C100.154 53.8346 99.3291 53.6333 98.5862 53.2478C97.9006 52.8681 97.3367 52.3019 96.96 51.6147C96.5763 50.8539 96.3765 50.0137 96.3765 49.1616C96.3765 48.3095 96.5763 47.4693 96.96 46.7085C97.3367 46.0213 97.9006 45.455 98.5862 45.0754C99.319 44.6749 100.144 44.4726 100.979 44.4885ZM100.979 53.4653C101.654 53.4796 102.317 53.2921 102.885 52.9267C103.439 52.5535 103.879 52.0335 104.155 51.4248C104.455 50.7147 104.61 49.9515 104.61 49.1806C104.61 48.4096 104.455 47.6465 104.155 46.9364C103.879 46.3276 103.439 45.8076 102.885 45.4345C102.314 45.0829 101.656 44.8968 100.986 44.8968C100.315 44.8968 99.6578 45.0829 99.0868 45.4345C98.5322 45.8076 98.0923 46.3276 97.8162 46.9364C97.516 47.6465 97.3612 48.4096 97.3612 49.1806C97.3612 49.9515 97.516 50.7147 97.8162 51.4248C98.0923 52.0335 98.5322 52.5535 99.0868 52.9267C99.6515 53.2849 100.31 53.4664 100.979 53.448V53.4653Z" fill="white"/>
<path d="M115.345 49.9189L115.193 51.9352C114.966 52.305 114.682 52.636 114.35 52.9157C113.998 53.2152 113.594 53.4491 113.159 53.6063C112.653 53.7809 112.12 53.8662 111.585 53.8583C110.756 53.8634 109.939 53.6604 109.209 53.2679C108.526 52.8896 107.964 52.3259 107.587 51.6417C107.205 50.879 107.007 50.0379 107.007 49.1852C107.007 48.3324 107.205 47.4914 107.587 46.7287C107.962 46.0423 108.525 45.477 109.209 45.099C109.964 44.6944 110.811 44.4922 111.668 44.5121C112.745 44.4981 113.803 44.802 114.709 45.3856L114.968 47.1948H114.851C114.704 46.4921 114.291 45.8736 113.698 45.4684C113.096 45.0734 112.388 44.87 111.668 44.885C110.988 44.8609 110.317 45.0403 109.74 45.4001C109.163 45.76 108.707 46.2839 108.429 46.9047C108.128 47.6147 107.973 48.3779 107.973 49.1489C107.973 49.92 108.128 50.6832 108.429 51.3931C108.705 52.002 109.145 52.522 109.7 52.895C110.263 53.26 110.92 53.4554 111.592 53.4578C112.172 53.4606 112.747 53.343 113.28 53.1125C113.813 52.8727 114.265 52.4842 114.582 51.9939C114.968 51.3673 115.198 50.6567 115.252 49.9223L115.345 49.9189Z" fill="white"/>
<path d="M116.247 44.4248C116.373 44.4711 116.504 44.5058 116.637 44.5284C116.813 44.5595 117.006 44.5905 117.22 44.6182C117.416 44.6418 117.613 44.6544 117.811 44.6561L116.247 44.7977V44.4248ZM123.677 44.6561V45.0394H116.247V44.6561H123.677ZM117.117 45.0014V45.0394C116.914 45.0443 116.721 45.1271 116.578 45.2707C116.507 45.3409 116.451 45.4249 116.414 45.5175C116.376 45.6101 116.358 45.7094 116.361 45.8093V46.0268H116.233V44.991L117.117 45.0014ZM119.568 52.7145V53.6536H118.532V53.5224H118.698C118.804 53.5244 118.909 53.5046 119.007 53.4642C119.105 53.4239 119.194 53.3638 119.268 53.2877C119.423 53.1365 119.513 52.931 119.52 52.7145H119.568ZM120.366 44.7079V53.6536H119.53V44.7079H120.366ZM120.324 52.7145H120.366C120.369 52.9309 120.459 53.137 120.614 53.2877C120.689 53.364 120.778 53.4243 120.876 53.4646C120.975 53.505 121.081 53.5247 121.187 53.5224H121.353V53.6536H120.317L120.324 52.7145ZM123.663 44.4283V44.8011L122.095 44.6596C122.295 44.6583 122.495 44.6456 122.693 44.6216C122.903 44.594 123.097 44.5629 123.276 44.5318C123.413 44.5106 123.547 44.4748 123.677 44.4248L123.663 44.4283ZM123.663 45.0048V46.0406H123.535V45.8231C123.537 45.7227 123.518 45.623 123.48 45.5302C123.441 45.4375 123.383 45.3538 123.311 45.2845C123.168 45.1432 122.977 45.0607 122.776 45.0532V45.0152L123.663 45.0048Z" fill="white"/>
<path d="M129.103 44.4885C129.946 44.47 130.78 44.6723 131.52 45.0754C132.206 45.4537 132.769 46.0204 133.143 46.7085C133.529 47.4687 133.73 48.3091 133.73 49.1616C133.73 50.014 133.529 50.8545 133.143 51.6147C132.769 52.3028 132.206 52.8695 131.52 53.2478C130.777 53.6334 129.951 53.8346 129.114 53.8346C128.276 53.8346 127.451 53.6334 126.707 53.2478C126.023 52.8676 125.46 52.3014 125.084 51.6147C124.701 50.8539 124.501 50.0137 124.501 49.1616C124.501 48.3095 124.701 47.4693 125.084 46.7085C125.46 46.0218 126.023 45.4555 126.707 45.0754C127.442 44.6758 128.267 44.4736 129.103 44.4885ZM129.103 53.4653C129.778 53.4807 130.442 53.293 131.009 52.9267C131.565 52.5546 132.005 52.0343 132.28 51.4248C132.58 50.7147 132.735 49.9515 132.735 49.1806C132.735 48.4096 132.58 47.6465 132.28 46.9364C132.007 46.3264 131.57 45.805 131.016 45.431C130.445 45.0791 129.788 44.8927 129.117 44.8927C128.446 44.8927 127.789 45.0791 127.218 45.431C126.664 45.8042 126.224 46.3242 125.948 46.9329C125.647 47.643 125.493 48.4062 125.493 49.1771C125.493 49.9481 125.647 50.7112 125.948 51.4213C126.224 52.0301 126.664 52.5501 127.218 52.9232C127.78 53.2819 128.437 53.4646 129.103 53.448V53.4653Z" fill="white"/>
<path d="M135.896 45.6052H135.851C135.844 45.3887 135.754 45.1832 135.599 45.0321C135.524 44.9567 135.436 44.897 135.338 44.8566C135.24 44.8163 135.135 44.7961 135.029 44.7973H134.86V44.6661H135.896V45.6052ZM135.896 52.7142V53.6533H134.86V53.5221H135.029C135.135 53.5241 135.24 53.5042 135.338 53.4639C135.436 53.4235 135.525 53.3634 135.599 53.2873C135.754 53.1361 135.844 52.9306 135.851 52.7142H135.896ZM136.69 44.6661V53.6429H135.851V44.6661H136.69ZM138.333 44.6661C138.686 44.6634 139.036 44.7206 139.369 44.8353C139.665 44.9344 139.935 45.0983 140.16 45.3152C140.375 45.5299 140.543 45.7875 140.653 46.0713C140.772 46.3939 140.831 46.7357 140.826 47.0795C140.826 47.4907 140.726 47.8958 140.536 48.2603C140.355 48.6255 140.087 48.9409 139.756 49.1787C139.431 49.4088 139.042 49.5297 138.644 49.5239C138.826 49.6129 138.988 49.7374 139.12 49.8899C139.29 50.0764 139.438 50.2524 139.569 50.4216C139.801 50.7669 140.004 51.0431 140.177 51.2848C140.35 51.5265 140.522 51.7578 140.712 51.9753C140.902 52.1928 141.057 52.3896 141.171 52.5277C141.332 52.7051 141.504 52.8723 141.686 53.0283C141.854 53.1702 142.043 53.2865 142.245 53.3736C142.458 53.4619 142.687 53.5053 142.918 53.5014V53.6326H142.228C141.874 53.6414 141.522 53.5804 141.192 53.453C140.927 53.3457 140.682 53.1952 140.467 53.0076C140.287 52.8517 140.12 52.682 139.966 52.5001C139.942 52.469 139.87 52.3689 139.756 52.2066C139.642 52.0444 139.5 51.8614 139.345 51.6231L138.875 50.9499L138.478 50.3767L138.285 50.1005C138.124 49.8877 137.943 49.6901 137.746 49.5101C137.575 49.3411 137.345 49.2446 137.104 49.2408V49.1131C137.37 49.1131 137.594 49.1131 137.795 49.1131C138.041 49.1027 138.287 49.068 138.527 49.0095C138.8 48.9463 139.055 48.8184 139.269 48.6366C139.527 48.4091 139.711 48.1097 139.797 47.7769C139.826 47.6634 139.848 47.548 139.863 47.4317C139.875 47.2927 139.875 47.1529 139.863 47.0139C139.879 46.5163 139.723 46.0284 139.421 45.6328C139.279 45.4642 139.103 45.3279 138.904 45.2332C138.705 45.1385 138.488 45.0876 138.268 45.0839C138.029 45.0839 137.784 45.0632 137.529 45.0839H136.638C136.63 45.0463 136.62 45.0094 136.607 44.9734C136.586 44.9078 136.552 44.8146 136.51 44.6834L138.333 44.6661ZM136.652 52.7142H136.69C136.689 52.8215 136.71 52.9278 136.752 53.0265C136.794 53.1252 136.856 53.214 136.935 53.2873C137.01 53.3632 137.1 53.4232 137.199 53.4635C137.298 53.5039 137.405 53.5238 137.511 53.5221H137.667V53.6533H136.652V52.7142Z" fill="white"/>
<path d="M35.004 70C28.0813 70.0008 21.3139 67.9486 15.5576 64.1031C9.80122 60.2576 5.31456 54.7914 2.665 48.3958C0.0154348 42.0002 -0.678019 34.9625 0.672336 28.1728C2.02269 21.3831 5.3562 15.1464 10.2513 10.2513C15.1464 5.3562 21.3831 2.02269 28.1728 0.672336C34.9625 -0.678019 42.0002 0.0154348 48.3958 2.665C54.7914 5.31456 60.2576 9.80122 64.1031 15.5576C67.9486 21.3139 70.0008 28.0813 70 35.004C69.9894 44.2823 66.2989 53.1775 59.7382 59.7382C53.1775 66.2989 44.2823 69.9894 35.004 70ZM35.004 0.712912C28.2177 0.712119 21.5836 2.72376 15.9407 6.49343C10.2977 10.2631 5.89935 15.6215 3.30181 21.891C0.704268 28.1604 0.0242217 35.0594 1.34767 41.7154C2.67112 48.3713 5.93862 54.4854 10.737 59.2842C15.5353 64.0831 21.649 67.3514 28.3048 68.6756C34.9606 69.9998 41.8596 69.3206 48.1294 66.7238C54.3992 64.127 59.7581 59.7292 63.5284 54.0867C67.2987 48.4442 69.3111 41.8103 69.3111 35.024C69.3058 25.9246 65.6904 17.1991 59.2584 10.7626C52.8264 4.32609 44.1034 0.704555 35.004 0.692886V0.712912Z" fill="white"/>
<path d="M42.6057 40.376C42.6015 40.654 42.4884 40.9193 42.2906 41.1147C42.0929 41.3102 41.8264 41.4203 41.5483 41.4213H40.8555V42.0181H46.2342V41.4213H45.6615C45.2871 41.4198 44.925 41.2871 44.6382 41.0464C44.3514 40.8057 44.158 40.4721 44.0915 40.1036C44.0783 40.0717 44.0702 40.038 44.0675 40.0035L42.866 30.2793C42.4242 30.3113 41.9844 30.3661 41.5483 30.4435L42.6177 40.2398V40.376H42.6057Z" fill="white"/>
<path d="M53.4354 45.7661C53.3406 46.6161 53.1051 47.4445 52.7386 48.2172C52.5904 48.4936 52.4422 48.7779 52.278 49.0182C52.278 49.0182 52.278 49.0182 52.278 49.0423C51.7749 49.7916 51.1681 50.4658 50.4757 51.0448L50.4357 51.0808C49.8448 51.5724 49.1866 51.9771 48.4812 52.2823C46.941 52.9455 45.28 53.2823 43.6031 53.2716C41.659 53.2599 39.7585 52.6945 38.1242 51.6415C37.3199 51.1072 36.5992 50.4567 35.9855 49.7111C35.3492 48.9701 34.8108 48.1503 34.3835 47.272L33.9349 46.2508C33.9349 46.2508 33.8228 46.0024 33.6586 45.5419C33.5625 45.2655 33.4784 44.9571 33.3942 44.6567C33.0442 43.3592 32.8559 42.0235 32.8335 40.6798C32.8335 40.2792 32.8335 39.8787 32.8335 39.4542C32.8616 39.1298 32.8856 38.8054 32.9217 38.481C32.9577 38.1566 32.9977 37.9483 33.0458 37.66C33.0939 37.3716 33.1379 37.1713 33.194 36.919C33.2701 36.5866 33.3502 36.2622 33.4463 35.9698C33.5424 35.6775 33.6305 35.3971 33.7427 35.0967C33.8166 34.8937 33.9008 34.6945 33.995 34.5C34.5084 33.2998 35.2661 32.2195 36.2197 31.328C37.1732 30.4364 38.3019 29.7531 39.534 29.3215C39.6701 29.2694 39.7943 29.2334 39.9345 29.1853C40.0746 29.1372 40.1948 29.0972 40.335 29.0451C40.5593 28.9851 40.7715 28.933 40.9838 28.8849C41.0078 28.8849 41.0479 28.8849 41.0719 28.8609C41.2104 28.8239 41.3507 28.7945 41.4924 28.7728C41.5325 28.7728 41.5805 28.7728 41.6326 28.7488C41.685 28.7349 41.7387 28.7268 41.7928 28.7247C41.915 28.6953 42.0397 28.6778 42.1653 28.6727C42.3175 28.6486 42.4536 28.6366 42.5898 28.6246C42.7624 28.6004 42.9362 28.587 43.1105 28.5846C43.2632 28.5658 43.4171 28.5578 43.571 28.5605H43.8474C43.9006 28.5546 43.9544 28.5546 44.0076 28.5605C44.1077 28.5605 44.2078 28.5605 44.308 28.5605C45.4526 28.6331 46.5818 28.8622 47.6642 29.2414C47.8965 29.3295 48.1368 29.4136 48.3611 29.5217C48.4732 29.5698 48.5853 29.6299 48.6855 29.6819C48.9144 29.7855 49.1353 29.906 49.3463 30.0424C49.6237 30.2183 49.8911 30.4095 50.1473 30.6151L50.2675 30.7152C50.9737 31.3133 51.5468 32.0528 51.9496 32.886C52.0096 33.0221 52.0617 33.1583 52.1218 33.2865C52.1819 33.4146 52.258 33.6509 52.322 33.8472H52.6705L52.1739 30.3267C51.9255 30.1025 49.0259 27.7475 43.559 27.7475C43.2386 27.7475 42.9142 27.7475 42.6138 27.7875L41.4123 17.5547H40.8556L34.4155 30.567C34.3274 30.7393 34.2393 30.9035 34.1672 31.0637C34.0951 31.2239 34.0431 31.3 33.991 31.4121C33.8308 31.7125 33.6946 32.0089 33.5905 32.2852C33.5264 32.4094 33.4663 32.5335 33.4143 32.6577C32.0085 35.5813 31.572 37.1753 31.4838 39.4182C31.4838 39.6264 31.4838 39.8187 31.4598 40.0389L21.4472 17.5707H20.9346L18.1831 39.9629C18.1813 39.9974 18.1731 40.0313 18.1591 40.063C18.0935 40.4322 17.9004 40.7667 17.6135 41.0082C17.3266 41.2497 16.9641 41.3829 16.5891 41.3846H16.0244V41.9814H21.3832V41.3846H20.6863C20.4082 41.3836 20.1417 41.2735 19.944 41.0781C19.7463 40.8826 19.6331 40.6173 19.6289 40.3393V40.1991L21.7596 20.7427L32.7655 46.3269C32.8156 46.4543 32.8731 46.5786 32.9377 46.6993L33.0498 46.9476L33.162 47.1959C33.2621 47.4082 33.3622 47.6325 33.4623 47.8327C34.445 49.6194 35.8925 51.107 37.6516 52.1382C37.7517 52.2142 37.8519 52.2623 37.952 52.3264C39.654 53.3675 41.6206 53.8946 43.6151 53.8443C44.0983 53.8411 44.5809 53.8117 45.0609 53.7562C45.2852 53.7562 45.5055 53.7201 45.7938 53.6841L46.0301 53.644C46.3425 53.596 46.6269 53.5199 46.9993 53.4478C47.1421 53.394 47.2879 53.3485 47.4359 53.3116C47.5881 53.2596 47.7363 53.2235 47.8845 53.1715C48.5025 52.9516 49.1024 52.6838 49.6787 52.3704C50.2348 52.0574 50.7592 51.6912 51.2447 51.2771C52.1307 50.5332 52.899 49.6596 53.5236 48.6858L53.7478 45.7742L53.4354 45.7661ZM40.4551 20.3702L41.2001 27.9518C37.5154 28.5004 35.9094 30.2787 35.6851 30.527L40.4551 20.3702Z" fill="white"/>
</svg>
