<svg width="309" height="60" viewBox="0 0 309 60" fill="none" xmlns="http://www.w3.org/2000/svg">
<path d="M75.4438 27.1993V28.6375H73.2568V28.4333H73.5705C73.9144 28.4382 74.2493 28.3231 74.5175 28.1078C74.6561 27.9967 74.7711 27.8592 74.856 27.7032C74.9409 27.5472 74.9938 27.3759 75.0117 27.1993H75.4438ZM76.4914 14.5627H76.6897L77.0833 15.7257L75.9203 28.6375H74.8549L76.4914 14.5627ZM76.0179 27.513V27.6106C76.0184 27.8292 76.0996 28.04 76.2458 28.2025C76.31 28.285 76.3921 28.3519 76.4859 28.3981C76.5797 28.4442 76.6828 28.4684 76.7874 28.4688H77.0833V28.6464H75.8818V27.5218L76.0179 27.513ZM76.6897 14.5627L82.3658 26.8441L81.913 28.9157L76.3139 16.7822L76.6897 14.5627ZM87.5684 14.5627L87.7282 15.8826L82.7772 26.9033C82.5789 27.3502 82.428 27.726 82.3244 28.0368C82.2235 28.3249 82.1511 28.6223 82.1084 28.9246H81.9101L81.6349 27.6816L87.5684 14.5627ZM87.8052 27.513H87.9443V28.6375H86.7428V28.46H87.0387C87.1449 28.4616 87.2499 28.4383 87.3455 28.3921C87.4411 28.3458 87.5245 28.2779 87.5891 28.1936C87.7311 28.0294 87.8079 27.8188 87.8052 27.6017V27.5041V27.513ZM87.7371 14.5627L89.4328 28.6375H87.8969L86.8108 16.6905L87.5595 14.5627H87.7371ZM88.841 27.1993H89.2553C89.3017 27.5587 89.4851 27.8863 89.7672 28.1137C90.0306 28.3247 90.3591 28.4377 90.6965 28.4333H91.0131V28.6316H88.8439L88.841 27.1993Z" fill="black"/>
<path d="M94.1506 27.1993C94.0615 27.4112 94.0479 27.6473 94.1121 27.8681C94.1697 28.0418 94.2845 28.191 94.4377 28.2913C94.5737 28.3847 94.7343 28.4362 94.8993 28.4392H95.0769V28.6375H91.1143V28.4333H91.2918C91.6255 28.4209 91.9496 28.3186 92.2299 28.1374C92.5848 27.9054 92.8621 27.5725 93.026 27.1815L94.1506 27.1993ZM98.3914 14.5627L98.5689 15.9418L93.6209 28.5783H92.4371L97.4829 16.5958C97.6249 16.2673 97.7492 15.9861 97.8469 15.7494C97.9445 15.5126 98.0303 15.2818 98.1014 15.0599C98.1613 14.9012 98.1982 14.7348 98.2109 14.5656L98.3914 14.5627ZM101.17 23.2544V23.8463H94.997V23.2544H101.17ZM98.3914 14.5627L104.227 28.5191H102.535L97.9948 16.436L98.3914 14.5627ZM102.058 27.1993H103.674C103.829 27.5929 104.104 27.9275 104.461 28.1551C104.745 28.3359 105.072 28.438 105.408 28.4511H105.565V28.6494H101.126V28.4333H101.303C101.432 28.4307 101.558 28.4002 101.674 28.344C101.789 28.2878 101.891 28.2072 101.972 28.1078C102.072 27.9802 102.132 27.8268 102.147 27.6657C102.162 27.5046 102.13 27.3427 102.055 27.1993H102.058Z" fill="black"/>
<path d="M108.107 16.2792H108.048C108.041 15.9443 107.903 15.6255 107.663 15.3914C107.549 15.2721 107.411 15.1781 107.258 15.1154C107.105 15.0527 106.941 15.0227 106.775 15.0274H106.521V14.8291H108.098L108.107 16.2792ZM108.107 27.1993V28.6376H106.53V28.4334H106.784C106.95 28.4381 107.114 28.4081 107.267 28.3454C107.42 28.2827 107.558 28.1887 107.672 28.0694C107.912 27.8353 108.05 27.5165 108.057 27.1816L108.107 27.1993ZM109.341 14.838V28.6376H108.06V14.838H109.341ZM111.863 14.838C112.409 14.8304 112.953 14.9175 113.47 15.0954C113.919 15.2454 114.33 15.4941 114.671 15.8234C115.012 16.1527 115.275 16.5541 115.441 16.9983C115.626 17.493 115.716 18.018 115.707 18.5461C115.707 19.1767 115.555 19.798 115.263 20.3572C114.984 20.9187 114.571 21.4033 114.062 21.7689C113.566 22.1267 112.968 22.3165 112.357 22.3104C112.636 22.4448 112.884 22.6364 113.085 22.8727C113.326 23.1348 113.553 23.4105 113.763 23.6984C114.118 24.2094 114.43 24.6493 114.701 25.0183C114.971 25.3872 115.243 25.7492 115.518 26.1044C115.793 26.4565 116.029 26.7406 116.228 26.9507C116.474 27.2236 116.737 27.4806 117.015 27.7202C117.273 27.9388 117.563 28.1183 117.873 28.2529C118.202 28.387 118.554 28.4535 118.909 28.4482V28.6465H117.823C116.841 28.6773 115.883 28.3359 115.142 27.6906C114.867 27.4466 114.61 27.1836 114.372 26.9034C114.331 26.8501 114.224 26.6992 114.047 26.4476C113.869 26.1961 113.659 25.9002 113.416 25.5598L112.697 24.527C112.46 24.1837 112.256 23.8937 112.085 23.6392L111.789 23.216C111.542 22.8887 111.264 22.5855 110.96 22.3104C110.697 22.0508 110.344 21.9025 109.975 21.8961V21.6978C110.383 21.6978 110.732 21.6978 111.019 21.6978C111.398 21.6805 111.775 21.628 112.144 21.541C112.565 21.4439 112.956 21.2481 113.286 20.9698C113.679 20.6188 113.96 20.1597 114.094 19.6499C114.141 19.4713 114.175 19.2892 114.195 19.1054C114.221 18.8934 114.228 18.6795 114.215 18.4662C114.241 17.696 114 16.9406 113.535 16.3266C113.319 16.0636 113.048 15.8509 112.741 15.7032C112.435 15.5555 112.099 15.4764 111.759 15.4713C111.389 15.4447 111.01 15.4328 110.626 15.4417C110.241 15.4506 109.779 15.4417 109.255 15.4417C109.242 15.3845 109.225 15.3282 109.205 15.273L109.057 14.8291L111.863 14.838ZM109.282 27.1993H109.341C109.338 27.3652 109.369 27.5299 109.433 27.6829C109.498 27.8358 109.593 27.9735 109.714 28.0871C109.83 28.2042 109.969 28.2967 110.121 28.3592C110.274 28.4217 110.437 28.453 110.602 28.4511H110.839V28.6494H109.282V27.1993Z" fill="black"/>
<path d="M120.859 16.2792H120.8C120.793 15.9443 120.654 15.6255 120.415 15.3914C120.3 15.2721 120.162 15.1781 120.009 15.1154C119.857 15.0527 119.692 15.0227 119.527 15.0274H119.27V14.8291H120.847L120.859 16.2792ZM120.859 27.1993V28.6376H119.281V28.4334H119.539C119.704 28.4381 119.868 28.4081 120.021 28.3454C120.174 28.2827 120.312 28.1887 120.427 28.0694C120.666 27.8353 120.804 27.5165 120.811 27.1816L120.859 27.1993ZM122.081 14.838V28.6376H120.8V14.838H122.081ZM122.022 16.2792V14.838H123.599V15.0363H123.342C123.176 15.0316 123.012 15.0616 122.859 15.1243C122.706 15.187 122.568 15.281 122.454 15.4003C122.213 15.6336 122.075 15.9529 122.069 16.2881L122.022 16.2792ZM122.022 27.1993H122.081C122.084 27.3653 122.119 27.5292 122.185 27.6815C122.251 27.8339 122.346 27.9717 122.466 28.0871C122.58 28.2064 122.718 28.3004 122.871 28.3631C123.024 28.4258 123.188 28.4558 123.353 28.4511H123.611V28.6494H122.034L122.022 27.1993Z" fill="black"/>
<path d="M127.284 27.2496V28.6494H125.647V28.4334H126.023C126.337 28.4304 126.639 28.3053 126.863 28.0844C127.087 27.8635 127.217 27.5642 127.224 27.2496H127.284ZM127.245 14.5539L128.112 15.6607L128.133 28.6494H127.224V17.0072C127.214 16.1827 127.154 15.3595 127.047 14.542L127.245 14.5539ZM127.245 14.5539L138.698 26.7761L138.875 28.9246L127.423 16.7113L127.245 14.5539ZM128.133 27.2496C128.141 27.5642 128.27 27.8635 128.494 28.0844C128.718 28.3053 129.02 28.4304 129.334 28.4334H129.707V28.6317H128.074V27.2496H128.133ZM136.39 14.8498H138.026V16.2496H137.988C137.981 15.9282 137.851 15.6216 137.624 15.3943C137.512 15.2811 137.378 15.192 137.23 15.1324C137.083 15.0729 136.924 15.0442 136.765 15.0481H136.39V14.8498ZM138.875 14.8498V26.3914C138.875 26.8116 138.875 27.2141 138.914 27.6018C138.952 27.9895 138.985 28.4275 139.053 28.9128H138.875L137.988 27.8681V14.8468L138.875 14.8498ZM140.453 14.8498V15.0481H140.098C139.94 15.0464 139.784 15.0761 139.638 15.1356C139.492 15.1951 139.36 15.283 139.248 15.3943C139.132 15.5048 139.039 15.6374 138.975 15.7843C138.911 15.9312 138.877 16.0894 138.875 16.2496H138.816V14.838L140.453 14.8498Z" fill="black"/>
<path d="M143.88 27.1993C143.79 27.4112 143.777 27.6473 143.841 27.8681C143.899 28.0418 144.013 28.191 144.167 28.2913C144.303 28.3847 144.463 28.4362 144.628 28.4392H144.806V28.6375H140.846V28.4333H141.024C141.356 28.4209 141.68 28.3187 141.959 28.1374C142.315 27.9064 142.594 27.5733 142.758 27.1815L143.88 27.1993ZM148.109 14.5627L148.286 15.9418L143.338 28.5783H142.154L147.221 16.5958C147.366 16.2673 147.487 15.9861 147.585 15.7494C147.682 15.5126 147.768 15.2818 147.842 15.0599C147.9 14.9008 147.936 14.7345 147.949 14.5656L148.109 14.5627ZM150.887 23.2544V23.8463H144.729V23.2544H150.887ZM148.109 14.5627L153.944 28.5191H152.269L147.724 16.436L148.109 14.5627ZM151.775 27.1993H153.391C153.546 27.5938 153.823 27.9286 154.181 28.1551C154.464 28.3358 154.79 28.438 155.125 28.4511H155.285V28.6494H150.846V28.4333H151.024C151.152 28.4307 151.278 28.4002 151.394 28.344C151.509 28.2878 151.611 28.2072 151.692 28.1078C151.793 27.9811 151.856 27.8281 151.872 27.667C151.888 27.5059 151.858 27.3435 151.784 27.1993H151.775Z" fill="black"/>
<path d="M174 22.8815L173.763 25.977C173.417 26.546 172.98 27.0548 172.47 27.4833C171.927 27.9384 171.306 28.2923 170.638 28.528C169.862 28.7968 169.045 28.927 168.223 28.9127C166.951 28.9248 165.696 28.6132 164.577 28.0072C163.526 27.4292 162.661 26.5639 162.083 25.5124C161.465 24.3454 161.159 23.0385 161.195 21.7185C161.164 20.4113 161.47 19.1183 162.083 17.963C162.658 16.9077 163.524 16.0391 164.577 15.4594C165.737 14.8424 167.037 14.5365 168.351 14.5716C169.242 14.5589 170.131 14.6888 170.981 14.9563C171.701 15.1837 172.388 15.5051 173.023 15.9122L173.417 18.691H173.239C173.006 17.6191 172.371 16.6775 171.464 16.0601C170.807 15.6042 170.058 15.2978 169.27 15.1624C168.482 15.027 167.673 15.0658 166.902 15.2763C166.13 15.4867 165.414 15.8636 164.804 16.3804C164.194 16.8973 163.704 17.5415 163.37 18.2678C162.884 19.3477 162.645 20.5226 162.671 21.7066C162.646 22.8944 162.884 24.073 163.37 25.1573C163.794 26.0923 164.47 26.8906 165.323 27.4626C166.19 28.0221 167.2 28.32 168.232 28.3209C169.123 28.3287 170.006 28.1513 170.825 27.8C171.642 27.4314 172.337 26.8356 172.825 26.0836C173.364 25.2944 173.705 24.227 173.849 22.8815H174Z" fill="black"/>
<path d="M177.744 16.2792H177.685C177.679 15.944 177.541 15.6248 177.3 15.3914C177.186 15.2721 177.048 15.1781 176.895 15.1154C176.742 15.0527 176.577 15.0227 176.412 15.0274H176.155V14.8291H177.732L177.744 16.2792ZM177.744 27.1993V28.6376H176.167V28.4334H176.424C176.589 28.4381 176.754 28.4081 176.907 28.3454C177.059 28.2827 177.198 28.1887 177.312 28.0694C177.431 27.9539 177.527 27.8161 177.593 27.6638C177.659 27.5114 177.694 27.3476 177.697 27.1816L177.744 27.1993ZM178.966 14.838V28.6376H177.685V14.838H178.966ZM187.205 21.5203V22.1121H178.768V21.5203H187.205ZM178.919 16.2792V14.838H180.496V15.0363H180.239C180.074 15.0316 179.909 15.0616 179.756 15.1243C179.603 15.187 179.465 15.281 179.351 15.4003C179.111 15.6344 178.973 15.9532 178.966 16.2881L178.919 16.2792ZM178.919 27.1993H178.978C178.985 27.5342 179.123 27.853 179.363 28.0871C179.477 28.2064 179.615 28.3004 179.768 28.3631C179.921 28.4258 180.085 28.4558 180.251 28.4511H180.508V28.6494H178.931L178.919 27.1993ZM187.099 16.2792H187.039C187.043 16.1133 187.012 15.9486 186.947 15.7957C186.883 15.6427 186.787 15.505 186.667 15.3914C186.55 15.2746 186.412 15.1823 186.259 15.1198C186.107 15.0573 185.943 15.0259 185.779 15.0274H185.521V14.8291H187.099V16.2792ZM187.099 27.1993V28.6376H185.521V28.4334H185.779C185.943 28.4349 186.107 28.4035 186.259 28.341C186.412 28.2785 186.55 28.1861 186.667 28.0694C186.787 27.9558 186.883 27.8181 186.947 27.6651C187.012 27.5122 187.043 27.3474 187.039 27.1816L187.099 27.1993ZM188.321 14.838V28.6376H187.039V14.838H188.321ZM188.262 16.2792V14.838H189.836V15.0363H189.579C189.413 15.0316 189.249 15.0616 189.096 15.1243C188.943 15.187 188.805 15.281 188.691 15.4003C188.451 15.6344 188.313 15.9532 188.306 16.2881L188.262 16.2792ZM188.262 27.1993H188.321C188.328 27.5342 188.466 27.853 188.706 28.0871C188.82 28.2064 188.958 28.3004 189.111 28.3631C189.264 28.4258 189.428 28.4558 189.593 28.4511H189.836V28.6494H188.259L188.262 27.1993Z" fill="black"/>
<path d="M193.769 16.2791H193.71C193.713 16.113 193.681 15.9482 193.617 15.7952C193.552 15.6422 193.456 15.5046 193.334 15.3913C193.218 15.274 193.08 15.1813 192.928 15.1188C192.775 15.0562 192.611 15.0251 192.446 15.0273H192.204L192.183 14.829H193.76L193.769 16.2791ZM193.769 27.1992V28.6375H192.204V28.4333H192.461C192.626 28.438 192.791 28.408 192.944 28.3453C193.097 28.2826 193.235 28.1886 193.349 28.0693C193.468 27.9538 193.564 27.816 193.63 27.6637C193.696 27.5113 193.731 27.3475 193.734 27.1815L193.769 27.1992ZM194.992 14.8379V28.6375H193.71V14.8379H194.992ZM200.318 14.8379V15.4505H194.932V14.8379H200.318ZM199.472 21.5409V22.1328H194.932V21.5409H199.472ZM200.318 28.0249V28.6375H194.932V28.0249H200.318ZM201.523 25.4443L200.372 28.6375H197.102L197.809 28.0249C198.395 28.0481 198.98 27.9367 199.516 27.6994C199.946 27.4904 200.316 27.1757 200.591 26.7849C200.88 26.3651 201.124 25.9157 201.319 25.4443H201.523ZM200.318 14.4946V15.0569L197.915 14.8379C198.222 14.8377 198.529 14.8179 198.833 14.7787C199.152 14.7402 199.451 14.6958 199.721 14.6426C199.923 14.6103 200.121 14.5567 200.313 14.4828L200.318 14.4946ZM199.472 20.292V21.5912H198.33V21.5527C198.583 21.546 198.823 21.4397 198.999 21.2568C199.087 21.1673 199.157 21.061 199.205 20.9441C199.252 20.8273 199.275 20.7022 199.274 20.5761V20.3009L199.472 20.292ZM199.472 22.1032V23.4023H199.274V23.1064C199.275 22.9804 199.252 22.8553 199.205 22.7384C199.157 22.6216 199.087 22.5153 198.999 22.4257C198.915 22.3317 198.811 22.2567 198.696 22.2057C198.581 22.1547 198.456 22.1288 198.33 22.1298V22.0884L199.472 22.1032ZM200.318 15.4031V16.9805H200.123V16.6254C200.125 16.4733 200.096 16.3225 200.039 16.1818C199.981 16.041 199.896 15.9131 199.789 15.8056C199.572 15.5793 199.274 15.4484 198.96 15.4416V15.4031H200.318Z" fill="black"/>
<path d="M204.947 16.2792H204.887C204.88 15.9443 204.742 15.6255 204.503 15.3914C204.388 15.273 204.249 15.1795 204.097 15.1169C203.944 15.0543 203.78 15.0238 203.615 15.0274H203.36V14.8291H204.938L204.947 16.2792ZM204.947 27.1993V28.6376H203.369V28.4334H203.624C203.789 28.437 203.953 28.4065 204.106 28.3439C204.258 28.2812 204.397 28.1878 204.512 28.0694C204.751 27.8353 204.889 27.5165 204.896 27.1816L204.947 27.1993ZM206.169 14.838V28.6376H204.887V14.838H206.169ZM208.69 14.838C209.237 14.8304 209.78 14.9175 210.297 15.0954C210.747 15.2454 211.157 15.4941 211.498 15.8234C211.839 16.1527 212.102 16.5541 212.268 16.9983C212.453 17.493 212.544 18.018 212.534 18.5461C212.534 19.1767 212.382 19.798 212.091 20.3572C211.811 20.9187 211.399 21.4033 210.889 21.7689C210.393 22.1267 209.796 22.3165 209.184 22.3104C209.464 22.4448 209.712 22.6364 209.912 22.8727C210.158 23.1345 210.388 23.4102 210.602 23.6984C210.957 24.2104 211.268 24.6513 211.54 25.0183C211.812 25.3852 212.082 25.7492 212.357 26.1044C212.632 26.4595 212.869 26.7406 213.067 26.9507C213.313 27.2236 213.576 27.4806 213.854 27.7202C214.113 27.9388 214.402 28.1183 214.713 28.2529C215.041 28.387 215.393 28.4535 215.748 28.4482V28.6465H214.662C213.68 28.6773 212.722 28.3359 211.981 27.6906C211.708 27.4493 211.452 27.1893 211.215 26.9123C211.173 26.859 211.067 26.7081 210.889 26.4565C210.711 26.205 210.501 25.909 210.259 25.5687C210.016 25.2284 209.776 24.8762 209.537 24.5359C209.297 24.1956 209.099 23.9026 208.927 23.6481L208.631 23.2249C208.383 22.8983 208.106 22.5951 207.802 22.3193C207.539 22.0597 207.186 21.9114 206.817 21.905V21.7067C207.225 21.7067 207.575 21.7067 207.862 21.7067C208.24 21.6894 208.617 21.6368 208.986 21.5499C209.456 21.4483 209.888 21.2173 210.233 20.8832C210.578 20.549 210.823 20.1249 210.939 19.6588C210.984 19.4797 211.017 19.2978 211.037 19.1143C211.064 18.9023 211.069 18.6882 211.055 18.4751C211.083 17.705 210.843 16.949 210.377 16.3354C210.161 16.0725 209.89 15.8598 209.583 15.7121C209.277 15.5644 208.942 15.4853 208.601 15.4802C208.231 15.4535 207.853 15.4417 207.468 15.4506C207.083 15.4595 206.622 15.4506 206.098 15.4506C206.084 15.3934 206.068 15.3371 206.047 15.2819C206.015 15.1842 205.965 15.0363 205.9 14.838H208.69ZM206.113 27.1993H206.172C206.168 27.3652 206.2 27.5299 206.264 27.6829C206.328 27.8358 206.424 27.9735 206.545 28.0871C206.661 28.2043 206.799 28.2969 206.952 28.3594C207.104 28.422 207.268 28.4532 207.432 28.4511H207.669V28.6494H206.113V27.1993Z" fill="black"/>
<path d="M217.462 27.2496V28.6494H215.825V28.4334H216.201C216.516 28.4304 216.817 28.3053 217.041 28.0844C217.265 27.8635 217.395 27.5642 217.403 27.2496H217.462ZM217.423 14.5539L218.29 15.6607L218.308 28.6494H217.403V17.0072C217.392 16.1827 217.332 15.3595 217.225 14.542L217.423 14.5539ZM217.423 14.5539L228.873 26.7761L229.051 28.9246L217.601 16.7113L217.423 14.5539ZM218.311 27.2496C218.319 27.5642 218.448 27.8635 218.673 28.0844C218.897 28.3053 219.198 28.4304 219.513 28.4334H219.885V28.6317H218.246V27.2496H218.311ZM226.571 14.8498H228.207V16.2496H228.169C228.163 15.9275 228.031 15.6206 227.802 15.3943C227.691 15.281 227.557 15.1918 227.41 15.1323C227.263 15.0727 227.105 15.044 226.947 15.0481H226.571V14.8498ZM229.054 14.8498V26.3914C229.054 26.8116 229.054 27.2141 229.095 27.6018C229.136 27.9895 229.166 28.4275 229.231 28.9128H229.054L228.166 27.8681V14.8468L229.054 14.8498ZM230.631 14.8498V15.0481H230.276C230.119 15.0468 229.963 15.0767 229.818 15.1362C229.673 15.1956 229.541 15.2834 229.429 15.3943C229.314 15.5051 229.221 15.6377 229.156 15.7844C229.092 15.9312 229.057 16.0893 229.054 16.2496H228.997V14.838L230.631 14.8498Z" fill="black"/>
<path d="M235.221 16.2585L233.567 16.1993C233.355 15.874 233.075 15.5984 232.747 15.3914C232.404 15.1583 231.998 15.0345 231.584 15.0363H231.306V14.838H236.156V15.0363H235.899C235.761 15.0342 235.627 15.0712 235.51 15.143C235.393 15.2148 235.299 15.3184 235.239 15.4417C235.167 15.5652 235.127 15.7049 235.124 15.8478C235.121 15.9907 235.154 16.132 235.221 16.2585ZM234.472 14.8587L238.337 22.053L237.482 22.7425L232.776 14.8587H234.472ZM237.369 27.1993V28.6376H235.813V28.4334H236.07C236.235 28.4381 236.4 28.4081 236.553 28.3454C236.706 28.2827 236.844 28.1887 236.958 28.0694C237.198 27.8353 237.336 27.5165 237.343 27.1816L237.369 27.1993ZM238.612 22.2897V28.6376H237.331V22.2897H238.612ZM242.119 14.8587H243.321L238.473 22.704L237.763 22.488L242.119 14.8587ZM238.568 27.1993H238.627C238.624 27.3652 238.655 27.5299 238.719 27.6829C238.784 27.8358 238.879 27.9735 239 28.0871C239.116 28.2042 239.255 28.2967 239.407 28.3592C239.56 28.4217 239.723 28.453 239.888 28.4511H240.125V28.6494H238.568V27.1993ZM241.326 16.2496C241.383 16.1689 241.421 16.0766 241.438 15.9794C241.455 15.8822 241.45 15.7824 241.424 15.6873C241.375 15.5035 241.272 15.3386 241.128 15.2138C240.992 15.093 240.816 15.0266 240.634 15.0274H240.397V14.8291H244.762V15.0274H244.484C244.076 15.028 243.678 15.1518 243.341 15.3825C243.011 15.5961 242.724 15.8702 242.495 16.1904L241.326 16.2496Z" fill="black"/>
<path d="M249.491 14.5627C249.719 14.5642 249.946 14.578 250.172 14.6041C250.414 14.6278 250.651 14.6662 250.882 14.7106C251.113 14.755 251.32 14.8024 251.512 14.8497C251.665 14.8821 251.814 14.9318 251.956 14.9977V17.1876H251.779C251.791 16.9076 251.738 16.6286 251.625 16.3721C251.512 16.1156 251.342 15.8883 251.128 15.7079C250.645 15.3342 250.046 15.1432 249.436 15.1687C248.826 15.1941 248.245 15.4344 247.795 15.847C247.582 16.0524 247.413 16.2989 247.298 16.5716C247.183 16.8442 247.125 17.1374 247.127 17.4333C247.135 17.7361 247.191 18.0357 247.292 18.3211C247.419 18.68 247.633 19.0022 247.914 19.2592L251.799 22.8105C252.157 23.1308 252.424 23.5389 252.575 23.9942C252.702 24.3893 252.769 24.8014 252.773 25.2164C252.793 25.7045 252.715 26.1915 252.543 26.6489C252.372 27.1063 252.111 27.5248 251.776 27.8799C251.423 28.2278 251.002 28.4985 250.538 28.6748C250.075 28.8511 249.581 28.9291 249.086 28.9038C248.713 28.899 248.341 28.8664 247.973 28.8062C247.546 28.7399 247.129 28.6237 246.73 28.4599C246.365 28.3207 246.031 28.1104 245.747 27.8414C245.703 27.5805 245.683 27.3159 245.688 27.0513C245.69 26.7184 245.716 26.3861 245.765 26.0569C245.812 25.7328 245.885 25.4131 245.984 25.101H246.162C246.083 25.6983 246.171 26.3058 246.416 26.8559C246.634 27.3328 246.997 27.7292 247.452 27.9894C247.925 28.249 248.462 28.3681 249 28.3327C249.69 28.3065 250.349 28.0383 250.861 27.5751C251.121 27.3375 251.325 27.0458 251.46 26.7205C251.594 26.3953 251.656 26.0445 251.64 25.6929C251.645 25.338 251.578 24.9857 251.444 24.6571C251.314 24.3519 251.118 24.0791 250.87 23.8581L247.088 20.3394C246.718 20.0081 246.433 19.5917 246.259 19.126C246.111 18.7322 246.031 18.3158 246.023 17.8949C246.023 17.3383 246.158 16.79 246.416 16.2969C246.688 15.7782 247.097 15.3449 247.6 15.045C248.173 14.7117 248.828 14.5446 249.491 14.5627ZM251.956 14.7609V15.1753H250.459V14.7609H251.956Z" fill="black"/>
<path d="M256.667 16.2792H256.608C256.601 15.9443 256.463 15.6255 256.223 15.3914C256.109 15.2721 255.971 15.1781 255.818 15.1154C255.665 15.0527 255.501 15.0227 255.336 15.0274H255.081V14.8291H256.658L256.667 16.2792ZM256.667 27.1993V28.6376H255.09V28.4334H255.344C255.51 28.4381 255.674 28.4081 255.827 28.3454C255.98 28.2827 256.118 28.1887 256.232 28.0694C256.472 27.8353 256.61 27.5165 256.617 27.1816L256.667 27.1993ZM257.901 14.838V28.6376H256.62V14.838H257.901ZM266.128 21.5203V22.1121H257.691V21.5203H266.128ZM257.842 16.2792V14.838H259.417V15.0363H259.162C258.997 15.0327 258.833 15.0632 258.68 15.1258C258.527 15.1884 258.389 15.2819 258.274 15.4003C258.034 15.6339 257.897 15.9532 257.892 16.2881L257.842 16.2792ZM257.842 27.1993H257.901C257.903 27.3652 257.938 27.5289 258.004 27.6813C258.069 27.8336 258.164 27.9715 258.283 28.0871C258.398 28.2056 258.536 28.299 258.689 28.3616C258.842 28.4242 259.006 28.4547 259.171 28.4511H259.425V28.6494H257.851L257.842 27.1993ZM266.022 16.2792H265.963C265.966 16.1131 265.934 15.9483 265.869 15.7953C265.805 15.6423 265.708 15.5047 265.587 15.3914C265.471 15.2741 265.333 15.1814 265.18 15.1189C265.028 15.0563 264.864 15.0252 264.699 15.0274H264.442V14.8291H266.019L266.022 16.2792ZM266.022 27.1993V28.6376H264.445V28.4334H264.702C264.867 28.4356 265.03 28.4045 265.183 28.3419C265.336 28.2794 265.474 28.1867 265.59 28.0694C265.711 27.9561 265.807 27.8184 265.872 27.6655C265.937 27.5125 265.969 27.3476 265.966 27.1816L266.022 27.1993ZM267.244 14.838V28.6376H265.951V14.838H267.244ZM267.185 16.2792V14.838H268.762V15.0363H268.505C268.34 15.0316 268.175 15.0616 268.022 15.1243C267.869 15.187 267.731 15.281 267.617 15.4003C267.497 15.5154 267.402 15.6532 267.336 15.8056C267.27 15.958 267.234 16.122 267.232 16.2881L267.185 16.2792ZM267.185 27.1993H267.244C267.246 27.3654 267.281 27.5295 267.347 27.6819C267.413 27.8343 267.509 27.9721 267.629 28.0871C267.743 28.2064 267.881 28.3004 268.034 28.3631C268.187 28.4258 268.351 28.4558 268.517 28.4511H268.774V28.6494H267.197L267.185 27.1993Z" fill="black"/>
<path d="M272.699 16.2791H272.64C272.643 16.113 272.611 15.9482 272.546 15.7952C272.482 15.6422 272.385 15.5046 272.264 15.3913C272.148 15.2741 272.01 15.1815 271.857 15.119C271.704 15.0565 271.541 15.0253 271.376 15.0273H271.139L271.122 14.829H272.699V16.2791ZM272.699 27.1992V28.6375H271.122V28.4333H271.376C271.541 28.4369 271.705 28.4064 271.858 28.3438C272.011 28.2811 272.149 28.1877 272.264 28.0693C272.504 27.8352 272.642 27.5164 272.649 27.1815L272.699 27.1992ZM273.921 14.8379V28.6375H272.64V14.8379H273.921ZM279.248 14.8379V15.4505H273.856V14.8379H279.248ZM278.402 21.5409V22.1328H273.856V21.5409H278.402ZM279.248 28.0249V28.6375H273.856V28.0249H279.248ZM280.45 25.4443L279.307 28.6375H276.022L276.733 28.0249C277.318 28.0476 277.901 27.9363 278.437 27.6994C278.866 27.4912 279.234 27.1763 279.506 26.7849C279.796 26.3652 280.041 25.9158 280.236 25.4443H280.45ZM279.248 14.4946V15.0569L276.842 14.8379C277.149 14.8378 277.455 14.818 277.759 14.7787C278.082 14.7402 278.381 14.6958 278.647 14.6426C278.849 14.6097 279.046 14.5562 279.236 14.4828L279.248 14.4946ZM278.402 20.292V21.5912H277.256V21.5527C277.51 21.5455 277.751 21.4393 277.928 21.2568C278.017 21.1673 278.087 21.061 278.134 20.9441C278.181 20.8273 278.205 20.7022 278.203 20.5761V20.3009L278.402 20.292ZM278.402 22.1032V23.4023H278.203V23.1064C278.205 22.9804 278.181 22.8553 278.134 22.7384C278.087 22.6216 278.017 22.5153 277.928 22.4257C277.843 22.3323 277.739 22.2576 277.624 22.2067C277.508 22.1557 277.383 22.1295 277.256 22.1298V22.0884L278.402 22.1032ZM279.248 15.4031V16.9805H279.05V16.6254C279.052 16.4732 279.024 16.3222 278.966 16.1814C278.909 16.0405 278.823 15.9127 278.715 15.8056C278.498 15.5793 278.2 15.4484 277.887 15.4416V15.4031H279.248Z" fill="black"/>
<path d="M284.637 16.2585L283 16.2792C282.847 15.8844 282.571 15.5493 282.213 15.3233C281.93 15.1415 281.603 15.0393 281.266 15.0274H281.109V14.8291H285.548V15.0274H285.371C285.245 15.0302 285.121 15.0599 285.007 15.1145C284.893 15.1691 284.792 15.2474 284.711 15.344C284.516 15.563 284.492 15.8649 284.637 16.2585ZM288.54 28.9128L282.429 14.9564H284.104L288.934 27.0395L288.54 28.9128ZM288.54 28.9128L288.363 27.5337L293.604 14.8972H294.788L289.461 26.8827C289.316 27.2112 289.194 27.4923 289.097 27.7291C288.999 27.9658 288.91 28.1966 288.839 28.4216C288.781 28.5796 288.745 28.7449 288.733 28.9128H288.54ZM293.053 16.2585C293.199 15.8639 293.173 15.562 292.974 15.3529C292.891 15.2551 292.789 15.1762 292.674 15.1216C292.558 15.0669 292.432 15.0378 292.305 15.0363H292.127V14.838H296.078V15.0363H295.9C295.571 15.0501 295.251 15.1523 294.974 15.3322C294.613 15.5606 294.33 15.8942 294.163 16.2881L293.053 16.2585Z" fill="black"/>
<path d="M296.67 27.1993C296.58 27.4109 296.565 27.647 296.628 27.8681C296.687 28.0413 296.801 28.1901 296.954 28.2913C297.091 28.3848 297.252 28.4362 297.418 28.4392H297.596V28.6375H293.625V28.4333H293.802C294.135 28.4214 294.458 28.3191 294.737 28.1374C295.094 27.9064 295.372 27.5733 295.536 27.1815L296.67 27.1993ZM300.908 14.5627L301.085 15.9418L296.137 28.5783H294.953L299.993 16.5958L300.357 15.7494C300.455 15.5126 300.541 15.2818 300.612 15.0599C300.672 14.9012 300.708 14.7348 300.721 14.5656L300.908 14.5627ZM303.686 23.2544V23.8463H297.507V23.2544H303.686ZM300.908 14.5627L306.732 28.5191H305.057L300.517 16.436L300.908 14.5627ZM304.574 27.1993H306.19C306.344 27.5935 306.62 27.9284 306.977 28.1551C307.261 28.3359 307.588 28.438 307.924 28.4511H308.081V28.6494H303.642V28.4333H303.82C303.948 28.4307 304.074 28.4002 304.19 28.344C304.305 28.2878 304.407 28.2072 304.488 28.1078C304.684 27.8977 304.707 27.5929 304.565 27.1993H304.574Z" fill="black"/>
<path d="M74.4996 39.0914H74.4671C74.4686 38.9996 74.451 38.9085 74.4153 38.8239C74.3796 38.7393 74.3267 38.6631 74.2599 38.6001C74.1274 38.4698 73.9486 38.3974 73.7627 38.3989H73.6325V38.2864H74.5203L74.4996 39.0914ZM74.4996 45.1847V45.9897H73.6118V45.8772H73.7539C73.8452 45.8792 73.9359 45.8623 74.0204 45.8277C74.1049 45.7931 74.1814 45.7414 74.2451 45.676C74.3783 45.5469 74.4549 45.3702 74.4582 45.1847H74.4996ZM75.1832 38.2864V45.9808H74.4671V38.2864H75.1832ZM77.3495 38.2864C78.0694 38.2687 78.7821 38.4337 79.4211 38.7658C80.002 39.0753 80.4833 39.5433 80.809 40.1153C81.1374 40.7384 81.309 41.4322 81.309 42.1366C81.309 42.8409 81.1374 43.5347 80.809 44.1578C80.4807 44.7271 80 45.1934 79.4211 45.5043C78.7832 45.8399 78.0701 46.007 77.3495 45.9897H74.982V45.6582H77.3495C77.9191 45.6787 78.4821 45.5311 78.9684 45.2338C79.4547 44.9364 79.8427 44.5025 80.084 43.9862C80.3416 43.4041 80.4747 42.7746 80.4747 42.138C80.4747 41.5015 80.3416 40.872 80.084 40.2899C79.8429 39.7842 79.4632 39.3573 78.989 39.0588C78.4956 38.7588 77.9268 38.6058 77.3495 38.6179H74.8755V38.2864H77.3495Z" fill="#828282"/>
<path d="M86.5542 38.1325C87.2768 38.1167 87.991 38.2901 88.6258 38.6356C89.2135 38.961 89.6968 39.4464 90.0197 40.0354C90.3485 40.6875 90.5198 41.4077 90.5198 42.1381C90.5198 42.8684 90.3485 43.5886 90.0197 44.2407C89.6968 44.8297 89.2135 45.3151 88.6258 45.6405C87.989 45.971 87.2821 46.1435 86.5646 46.1435C85.8471 46.1435 85.1402 45.971 84.5034 45.6405C83.9157 45.3151 83.4324 44.8297 83.1095 44.2407C82.7807 43.5886 82.6094 42.8684 82.6094 42.1381C82.6094 41.4077 82.7807 40.6875 83.1095 40.0354C83.4324 39.4464 83.9157 38.961 84.5034 38.6356C85.1316 38.2923 85.8385 38.1189 86.5542 38.1325ZM86.5542 45.8269C87.1326 45.8392 87.7015 45.6785 88.1878 45.3653C88.6632 45.0454 89.0402 44.5997 89.2769 44.0779C89.5342 43.4693 89.6669 42.8152 89.6669 42.1543C89.6669 41.4935 89.5342 40.8394 89.2769 40.2307C89.0402 39.7089 88.6632 39.2632 88.1878 38.9434C87.6984 38.642 87.1349 38.4825 86.5602 38.4825C85.9854 38.4825 85.4219 38.642 84.9325 38.9434C84.4571 39.2632 84.0801 39.7089 83.8434 40.2307C83.5861 40.8394 83.4535 41.4935 83.4535 42.1543C83.4535 42.8152 83.5861 43.4693 83.8434 44.0779C84.0801 44.5997 84.4571 45.0454 84.9325 45.3653C85.4166 45.6723 85.9812 45.8279 86.5542 45.8121V45.8269Z" fill="#828282"/>
<path d="M98.868 42.7876L98.7378 44.5159C98.5435 44.8329 98.2998 45.1166 98.0157 45.3564C97.7134 45.6131 97.3676 45.8135 96.9947 45.9483C96.5608 46.0979 96.1042 46.171 95.6452 46.1643C94.9349 46.1687 94.2348 45.9947 93.6092 45.6582C93.0234 45.334 92.5412 44.8508 92.2182 44.2644C91.8914 43.6106 91.7212 42.8897 91.7212 42.1588C91.7212 41.4278 91.8914 40.7069 92.2182 40.0532C92.5397 39.4648 93.0222 38.9803 93.6092 38.6563C94.2563 38.3096 94.9822 38.1362 95.7162 38.1532C96.64 38.1413 97.5468 38.4017 98.3235 38.902L98.5454 40.4527H98.4448C98.3185 39.8504 97.9644 39.3203 97.4564 38.973C96.9401 38.6344 96.3335 38.46 95.7162 38.4729C95.1337 38.4522 94.5584 38.606 94.0638 38.9144C93.5693 39.2229 93.1781 39.6719 92.9403 40.2041C92.6825 40.8126 92.5496 41.4668 92.5496 42.1277C92.5496 42.7886 92.6825 43.4428 92.9403 44.0513C93.1768 44.5732 93.5539 45.0189 94.0294 45.3386C94.5126 45.6515 95.0755 45.8189 95.6511 45.821C96.1488 45.8234 96.6415 45.7226 97.0983 45.5251C97.5547 45.3195 97.9421 44.9865 98.214 44.5662C98.5454 44.0292 98.7424 43.4201 98.7881 42.7906L98.868 42.7876Z" fill="#828282"/>
<path d="M99.6403 38.0793C99.7488 38.119 99.8607 38.1487 99.9747 38.1681C100.126 38.1947 100.291 38.2213 100.475 38.245C100.643 38.2652 100.812 38.2761 100.981 38.2776L99.6403 38.3989V38.0793ZM106.009 38.2776V38.6061H99.6403V38.2776H106.009ZM100.386 38.5735V38.6061C100.212 38.6103 100.047 38.6813 99.9244 38.8043C99.8634 38.8645 99.8154 38.9365 99.7834 39.0159C99.7513 39.0953 99.7358 39.1804 99.7379 39.266V39.4524H99.6284V38.5646L100.386 38.5735ZM102.487 45.1848V45.9897H101.599V45.8773H101.741C101.832 45.879 101.922 45.862 102.006 45.8274C102.09 45.7928 102.166 45.7412 102.23 45.676C102.363 45.5465 102.44 45.3703 102.446 45.1848H102.487ZM103.171 38.322V45.9897H102.455V38.322H103.171ZM103.135 45.1848H103.171C103.174 45.3703 103.251 45.5469 103.384 45.676C103.448 45.7415 103.524 45.7931 103.609 45.8277C103.693 45.8623 103.784 45.8792 103.875 45.8773H104.017V45.9897H103.129L103.135 45.1848ZM105.997 38.0822V38.4019L104.653 38.2805C104.825 38.2794 104.996 38.2686 105.165 38.248C105.346 38.2243 105.512 38.1977 105.666 38.171C105.783 38.1529 105.898 38.1221 106.009 38.0793L105.997 38.0822ZM105.997 38.5765V39.4643H105.888V39.2778C105.889 39.1918 105.873 39.1063 105.84 39.0268C105.807 38.9473 105.757 38.8756 105.695 38.8162C105.572 38.6951 105.409 38.6243 105.236 38.6179V38.5853L105.997 38.5765Z" fill="#828282"/>
<path d="M110.661 38.1325C111.383 38.1167 112.097 38.2901 112.732 38.6356C113.32 38.9599 113.803 39.4456 114.123 40.0354C114.454 40.687 114.626 41.4074 114.626 42.1381C114.626 42.8687 114.454 43.5891 114.123 44.2407C113.803 44.8305 113.32 45.3162 112.732 45.6405C112.095 45.971 111.387 46.1435 110.67 46.1435C109.952 46.1435 109.244 45.971 108.607 45.6405C108.02 45.3147 107.538 44.8293 107.216 44.2407C106.887 43.5886 106.716 42.8684 106.716 42.1381C106.716 41.4077 106.887 40.6875 107.216 40.0354C107.538 39.4468 108.02 38.9615 108.607 38.6356C109.236 38.2931 109.944 38.1198 110.661 38.1325ZM110.661 45.8269C111.239 45.8401 111.808 45.6793 112.294 45.3653C112.77 45.0464 113.148 44.6004 113.383 44.0779C113.641 43.4693 113.773 42.8152 113.773 42.1543C113.773 41.4935 113.641 40.8394 113.383 40.2307C113.15 39.7079 112.775 39.261 112.3 38.9404C111.811 38.6388 111.247 38.479 110.673 38.479C110.098 38.479 109.534 38.6388 109.045 38.9404C108.57 39.2603 108.192 39.706 107.956 40.2278C107.698 40.8364 107.566 41.4905 107.566 42.1514C107.566 42.8122 107.698 43.4663 107.956 44.075C108.192 44.5968 108.57 45.0425 109.045 45.3623C109.527 45.6698 110.089 45.8264 110.661 45.8121V45.8269Z" fill="#828282"/>
<path d="M116.483 39.0913H116.444C116.438 38.9058 116.361 38.7296 116.228 38.6001C116.164 38.5354 116.088 38.4843 116.004 38.4497C115.92 38.4151 115.83 38.3978 115.74 38.3988H115.595V38.2864H116.483V39.0913ZM116.483 45.1847V45.9896H115.595V45.8772H115.74C115.831 45.8789 115.921 45.8619 116.005 45.8273C116.089 45.7927 116.165 45.7412 116.228 45.6759C116.361 45.5464 116.438 45.3703 116.444 45.1847H116.483ZM117.163 38.2864V45.9808H116.444V38.2864H117.163ZM118.572 38.2864C118.874 38.284 119.174 38.3331 119.46 38.4314C119.713 38.5163 119.945 38.6569 120.137 38.8427C120.322 39.0268 120.466 39.2476 120.561 39.4908C120.663 39.7673 120.713 40.0603 120.709 40.355C120.708 40.7074 120.623 41.0547 120.46 41.3671C120.305 41.6802 120.075 41.9504 119.791 42.1543C119.513 42.3515 119.179 42.4552 118.838 42.4502C118.994 42.5265 119.133 42.6331 119.247 42.7639C119.392 42.9237 119.519 43.0747 119.631 43.2197C119.83 43.5156 120.004 43.7524 120.152 43.9595C120.3 44.1667 120.448 44.3649 120.611 44.5514C120.774 44.7378 120.907 44.9065 121.004 45.0249C121.142 45.1769 121.29 45.3202 121.445 45.454C121.59 45.5756 121.751 45.6753 121.925 45.7499C122.108 45.8256 122.304 45.8629 122.502 45.8594V45.9719H121.91C121.607 45.9795 121.305 45.9272 121.022 45.818C120.795 45.726 120.585 45.597 120.401 45.4362C120.247 45.3026 120.103 45.1571 119.972 45.0012C119.951 44.9746 119.889 44.8888 119.791 44.7497C119.693 44.6106 119.572 44.4537 119.439 44.2495L119.036 43.6724L118.696 43.1812L118.53 42.9444C118.392 42.762 118.238 42.5926 118.069 42.4384C117.922 42.2935 117.725 42.2108 117.518 42.2075V42.0981C117.746 42.0981 117.939 42.0981 118.11 42.0981C118.322 42.0891 118.532 42.0594 118.738 42.0093C118.972 41.9551 119.19 41.8455 119.374 41.6897C119.595 41.4946 119.752 41.238 119.827 40.9528C119.852 40.8554 119.871 40.7566 119.883 40.6568C119.893 40.5377 119.893 40.4179 119.883 40.2987C119.897 39.8723 119.763 39.4541 119.504 39.115C119.383 38.9704 119.231 38.8536 119.061 38.7724C118.89 38.6912 118.704 38.6476 118.516 38.6445C118.311 38.6445 118.101 38.6267 117.882 38.6445H117.119C117.112 38.6123 117.103 38.5806 117.092 38.5498C117.074 38.4935 117.045 38.4136 117.009 38.3012L118.572 38.2864ZM117.131 45.1847H117.163C117.162 45.2767 117.18 45.3679 117.217 45.4524C117.253 45.537 117.306 45.6131 117.373 45.6759C117.438 45.7411 117.515 45.7924 117.6 45.827C117.685 45.8616 117.776 45.8787 117.868 45.8772H118.001V45.9896H117.131V45.1847Z" fill="#828282"/>
<path d="M30.0034 60C24.0697 60.0007 18.269 58.2417 13.335 54.9455C8.40104 51.6493 4.55534 46.964 2.28428 41.4821C0.0132298 36.0002 -0.581159 29.9679 0.576288 24.1481C1.73373 18.3284 4.59103 12.9826 8.78681 8.78681C12.9826 4.59103 18.3284 1.73373 24.1481 0.576288C29.9679 -0.581159 36.0002 0.0132298 41.4821 2.28428C46.964 4.55534 51.6493 8.40104 54.9455 13.335C58.2417 18.269 60.0007 24.0697 60 30.0034C59.9909 37.9562 56.8277 45.5807 51.2042 51.2042C45.5807 56.8277 37.9562 59.9909 30.0034 60ZM30.0034 0.611067C24.1866 0.610388 18.5003 2.33465 13.6634 5.5658C8.82662 8.79695 5.05659 13.3899 2.83012 18.7637C0.603658 24.1375 0.0207615 30.0509 1.15515 35.756C2.28953 41.4611 5.09025 46.7017 9.20311 50.8151C13.316 54.9284 18.5562 57.7297 24.2612 58.8648C29.9662 59.9998 35.8797 59.4176 41.2538 57.1918C46.6278 54.966 51.2212 51.1965 54.4529 46.36C57.6846 41.5236 59.4095 35.8374 59.4095 30.0206C59.405 22.2211 56.3061 14.7421 50.7929 9.22508C45.2798 3.70808 37.8029 0.603904 30.0034 0.593903V0.611067Z" fill="#828282"/>
<path d="M36.5192 34.6071C36.5156 34.8454 36.4187 35.0727 36.2492 35.2403C36.0797 35.4078 35.8512 35.5022 35.6129 35.5031H35.019V36.0146H39.6294V35.5031H39.1385C38.8176 35.5017 38.5072 35.388 38.2614 35.1817C38.0156 34.9754 37.8498 34.6895 37.7928 34.3736C37.7815 34.3463 37.7745 34.3173 37.7722 34.2878L36.7424 25.9528C36.3637 25.9802 35.9867 26.0272 35.6129 26.0935L36.5295 34.4903V34.6071H36.5192Z" fill="black"/>
<path d="M45.8019 39.2277C45.7206 39.9563 45.5188 40.6663 45.2046 41.3286C45.0776 41.5655 44.9506 41.8093 44.8098 42.0152C44.8098 42.0152 44.8098 42.0152 44.8098 42.0358C44.3786 42.6781 43.8585 43.256 43.265 43.7523L43.2307 43.7832C42.7242 44.2046 42.1601 44.5514 41.5555 44.813C40.2352 45.3814 38.8116 45.6702 37.3742 45.661C35.7078 45.651 34.0788 45.1663 32.678 44.2638C31.9886 43.8058 31.3708 43.2482 30.8449 42.6091C30.2995 41.974 29.838 41.2713 29.4717 40.5185L29.0872 39.6431C29.0872 39.6431 28.9911 39.4303 28.8503 39.0355C28.768 38.7986 28.6959 38.5343 28.6238 38.2768C28.3237 37.1647 28.1623 36.0197 28.1432 34.868C28.1432 34.5247 28.1432 34.1814 28.1432 33.8175C28.1672 33.5394 28.1878 33.2614 28.2187 32.9833C28.2496 32.7052 28.2839 32.5267 28.3251 32.2796C28.3663 32.0324 28.4041 31.8608 28.4521 31.6445C28.5174 31.3596 28.586 31.0815 28.6684 30.8309C28.7508 30.5803 28.8263 30.34 28.9224 30.0825C28.9858 29.9085 29.058 29.7377 29.1387 29.571C29.5788 28.5422 30.2282 27.6163 31.0456 26.8522C31.8629 26.088 32.8304 25.5023 33.8864 25.1323C34.0031 25.0877 34.1095 25.0568 34.2297 25.0156C34.3498 24.9744 34.4528 24.9401 34.573 24.8954C34.7652 24.8439 34.9472 24.7993 35.1291 24.7581C35.1497 24.7581 35.184 24.7581 35.2046 24.7375C35.3233 24.7058 35.4436 24.6806 35.5651 24.662C35.5994 24.662 35.6406 24.662 35.6852 24.6414C35.7301 24.6295 35.7762 24.6226 35.8225 24.6208C35.9272 24.5955 36.0342 24.5806 36.1418 24.5762C36.2722 24.5556 36.389 24.5453 36.5057 24.535C36.6536 24.5142 36.8026 24.5027 36.952 24.5006C37.0829 24.4846 37.2148 24.4777 37.3467 24.48H37.5836C37.6292 24.4749 37.6753 24.4749 37.7209 24.48C37.8068 24.48 37.8926 24.48 37.9784 24.48C38.9595 24.5423 39.9274 24.7386 40.8552 25.0636C41.0543 25.1392 41.2602 25.2113 41.4525 25.3039C41.5486 25.3451 41.6447 25.3966 41.7305 25.4413C41.9268 25.53 42.1161 25.6333 42.297 25.7502C42.5348 25.901 42.764 26.0649 42.9835 26.2411L43.0865 26.3269C43.6919 26.8396 44.1831 27.4734 44.5283 28.1876C44.5798 28.3043 44.6245 28.421 44.676 28.5309C44.7275 28.6407 44.7927 28.8432 44.8476 29.0115H45.1463L44.7206 25.994C44.5077 25.8017 42.0223 23.7832 37.3364 23.7832C37.0618 23.7832 36.7838 23.7832 36.5263 23.8175L35.4964 15.0465H35.0192L29.4992 26.1999C29.4236 26.3475 29.3481 26.4883 29.2863 26.6256C29.2245 26.7629 29.1799 26.8281 29.1353 26.9243C28.998 27.1817 28.8812 27.4358 28.792 27.6726C28.7371 27.7791 28.6856 27.8855 28.6409 27.9919C27.436 30.4979 27.0618 31.8642 26.9863 33.7866C26.9863 33.9651 26.9863 34.1299 26.9657 34.3187L18.3835 15.0602H17.9441L15.5857 34.2535C15.5841 34.2831 15.5771 34.3122 15.5651 34.3393C15.5088 34.6558 15.3433 34.9425 15.0974 35.1495C14.8515 35.3565 14.5408 35.4707 14.2194 35.4721H13.7354V35.9836H18.3286V35.4721H17.7312C17.4929 35.4713 17.2645 35.3769 17.095 35.2094C16.9255 35.0418 16.8285 34.8145 16.8249 34.5762V34.456L18.6512 17.7791L28.0848 39.7083C28.1278 39.8175 28.1771 39.9241 28.2324 40.0276L28.3286 40.2404L28.4247 40.4533C28.5105 40.6352 28.5963 40.8274 28.6821 40.9991C29.5244 42.5305 30.7651 43.8056 32.2729 44.6894C32.3588 44.7547 32.4446 44.7959 32.5304 44.8508C33.9893 45.7431 35.6749 46.195 37.3845 46.1519C37.7987 46.1491 38.2124 46.1239 38.6238 46.0763C38.816 46.0763 39.0048 46.0454 39.252 46.0145L39.4545 45.9802C39.7223 45.939 39.966 45.8738 40.2853 45.812C40.4077 45.7659 40.5326 45.7269 40.6595 45.6953C40.7899 45.6507 40.9169 45.6198 41.044 45.5751C41.5737 45.3867 42.0879 45.1572 42.5819 44.8886C43.0585 44.6202 43.508 44.3064 43.9242 43.9514C44.6836 43.3138 45.3421 42.565 45.8775 41.7303L46.0697 39.2346L45.8019 39.2277ZM34.676 17.4598L35.3145 23.9582C32.1562 24.4286 30.7796 25.9528 30.5874 26.1656L34.676 17.4598Z" fill="black"/>
</svg>
