<svg width="832" height="611" viewBox="0 0 832 611" fill="none" xmlns="http://www.w3.org/2000/svg">
<path d="M585.861 501.98C585.769 508.107 583.275 513.954 578.918 518.262C574.56 522.57 568.685 524.997 562.557 525.019H547.286V538.172H665.837V525.019H653.214C644.961 524.985 636.981 522.061 630.66 516.756C624.339 511.451 620.075 504.099 618.611 495.977C618.319 495.274 618.14 494.529 618.081 493.77L591.599 279.442C581.862 280.148 572.169 281.356 562.557 283.062L586.126 498.978V501.98H585.861Z" fill="#828282" fill-opacity="0.05"/>
<path d="M824.562 621.798C822.471 640.532 817.28 658.789 809.202 675.821C805.936 681.912 802.67 688.179 799.051 693.476C799.051 693.476 799.051 693.476 799.051 694.005C787.962 710.521 774.588 725.381 759.328 738.142L758.445 738.937C745.422 749.772 730.916 758.69 715.368 765.419C681.419 780.035 644.811 787.459 607.851 787.222C565.002 786.966 523.113 774.503 487.093 751.295C469.365 739.518 453.48 725.18 439.955 708.747C425.93 692.414 414.063 674.347 404.645 654.989L394.759 632.479C394.759 632.479 392.287 627.006 388.668 616.854C386.549 610.764 384.696 603.967 382.842 597.346C375.127 568.748 370.976 539.307 370.484 509.691C370.484 500.863 370.484 492.036 370.484 482.679C371.101 475.529 371.631 468.379 372.426 461.229C373.22 454.078 374.103 449.488 375.162 443.132C376.221 436.777 377.192 432.363 378.428 426.802C380.105 419.475 381.871 412.325 383.989 405.881C386.108 399.437 388.05 393.258 390.522 386.638C392.151 382.162 394.007 377.772 396.083 373.485C407.399 347.031 424.098 323.222 445.115 303.572C466.133 283.922 491.01 268.861 518.165 259.347C521.166 258.2 523.903 257.405 526.992 256.346C530.082 255.287 532.73 254.404 535.82 253.256C540.763 251.932 545.441 250.785 550.12 249.725C550.65 249.725 551.532 249.725 552.062 249.196C555.114 248.38 558.208 247.732 561.331 247.254C562.213 247.254 563.273 247.254 564.42 246.724C565.574 246.418 566.758 246.241 567.951 246.195C570.644 245.545 573.393 245.161 576.161 245.047C579.515 244.517 582.516 244.253 585.518 243.988C589.321 243.454 593.153 243.159 596.993 243.105C600.361 242.693 603.753 242.516 607.145 242.575H613.235C614.409 242.444 615.593 242.444 616.766 242.575C618.973 242.575 621.18 242.575 623.387 242.575C648.614 244.176 673.503 249.225 697.36 257.582C702.48 259.524 707.776 261.378 712.72 263.761C715.191 264.82 717.663 266.144 719.87 267.292C724.915 269.575 729.784 272.23 734.435 275.236C740.549 279.113 746.443 283.328 752.09 287.86L754.738 290.066C770.304 303.248 782.934 319.546 791.813 337.911C793.137 340.912 794.284 343.913 795.608 346.738C796.932 349.563 798.61 354.771 800.022 359.096H807.702L796.756 281.504C791.283 276.561 727.373 224.656 606.88 224.656C599.818 224.656 592.668 224.656 586.047 225.539L559.565 0H547.295L405.352 286.8C403.41 290.596 401.468 294.215 399.879 297.746C398.29 301.277 397.142 302.954 395.995 305.426C392.464 312.046 389.462 318.579 387.167 324.67C385.755 327.406 384.431 330.143 383.283 332.879C352.299 397.319 342.677 432.451 340.735 481.885C340.735 486.475 340.735 490.712 340.206 495.567L119.522 0.353102H108.223L47.5794 493.89C47.5386 494.651 47.3591 495.399 47.0497 496.096C45.6034 504.234 41.348 511.607 35.025 516.93C28.7019 522.253 20.7118 525.189 12.4466 525.227H0V538.379H118.11V525.227H102.75C96.6222 525.204 90.7476 522.778 86.3897 518.47C82.0318 514.161 79.5385 508.315 79.4461 502.187V499.098L126.408 70.2656L368.983 634.156C370.087 636.964 371.355 639.705 372.779 642.366L375.25 647.839L377.722 653.311C379.929 657.99 382.136 662.933 384.342 667.347C406 706.726 437.905 739.514 476.676 762.241C478.883 763.918 481.09 764.977 483.297 766.39C520.81 789.336 564.155 800.953 608.116 799.845C618.765 799.775 629.403 799.127 639.982 797.903C644.926 797.903 649.781 797.109 656.136 796.314L661.344 795.432C668.23 794.372 674.497 792.695 682.707 791.106C685.853 789.921 689.066 788.919 692.328 788.105C695.683 786.957 698.949 786.163 702.215 785.015C715.837 780.171 729.06 774.268 741.762 767.361C754.018 760.461 765.577 752.391 776.276 743.262C795.804 726.867 812.738 707.612 826.504 686.149L831.447 621.974L824.562 621.798ZM538.468 62.0562L554.887 229.158C473.675 241.251 438.277 280.445 433.334 285.918L538.468 62.0562Z" fill="#828282" fill-opacity="0.05"/>
</svg>
