<?xml version="1.0" encoding="utf-8"?>
<!-- Generator: Adobe Illustrator 26.2.1, SVG Export Plug-In . SVG Version: 6.00 Build 0)  -->
<svg version="1.1" id="Слой_1" xmlns="http://www.w3.org/2000/svg" xmlns:xlink="http://www.w3.org/1999/xlink" x="0px" y="0px"
	 viewBox="0 0 16 32" style="enable-background:new 0 0 16 32;" xml:space="preserve">
<path d="M15.1,31.3c0.2,0.2,0.5,0.2,0.7,0c0.2-0.2,0.2-0.5,0-0.7L15.1,31.3z M0.1,15.6C0.1,15.7,0,15.8,0,15.9
	c0,0.1,0.1,0.3,0.1,0.4l0.4-0.4L0.1,15.6z M15.9,1.3c0.2-0.2,0.2-0.5,0-0.7c-0.2-0.2-0.5-0.2-0.7,0L15.9,1.3z M15.9,30.6l-15-15
	l-0.7,0.7l15,15L15.9,30.6z M0.9,16.3l15-15l-0.7-0.7l-15,15L0.9,16.3z"/>
</svg>
