<svg width="71" height="71" viewBox="0 0 71 71" fill="none" xmlns="http://www.w3.org/2000/svg">
<rect x="0.5" y="0.944824" width="70" height="69.9105" rx="34" fill="white"/>
<path d="M35.1464 50.5918C34.9512 50.787 34.9512 51.1036 35.1464 51.2989C35.3417 51.4941 35.6583 51.4941 35.8536 51.2989L35.1464 50.5918ZM50.5 35.9453L50.8536 36.2989C50.9473 36.2051 51 36.0779 51 35.9453C51 35.8127 50.9473 35.6855 50.8536 35.5918L50.5 35.9453ZM35.8536 20.5918C35.6583 20.3965 35.3417 20.3965 35.1464 20.5918C34.9512 20.787 34.9512 21.1036 35.1464 21.2989L35.8536 20.5918ZM35.8536 51.2989L50.8536 36.2989L50.1464 35.5918L35.1464 50.5918L35.8536 51.2989ZM50.8536 35.5918L35.8536 20.5918L35.1464 21.2989L50.1464 36.2989L50.8536 35.5918Z" fill="black"/>
</svg>
