<svg width="17" height="32" viewBox="0 0 17 32" fill="none" xmlns="http://www.w3.org/2000/svg">
<path d="M0.646446 30.6464C0.451184 30.8417 0.451184 31.1583 0.646446 31.3536C0.841709 31.5488 1.15829 31.5488 1.35355 31.3536L0.646446 30.6464ZM16 16L16.3536 16.3536C16.5488 16.1583 16.5488 15.8417 16.3536 15.6464L16 16ZM1.35356 0.646445C1.15829 0.451184 0.841712 0.451184 0.646449 0.646445C0.451187 0.841708 0.451187 1.15829 0.646449 1.35355L1.35356 0.646445ZM1.35355 31.3536L16.3536 16.3536L15.6464 15.6464L0.646446 30.6464L1.35355 31.3536ZM16.3536 15.6464L1.35356 0.646445L0.646449 1.35355L15.6464 16.3536L16.3536 15.6464Z" fill="black"/>
</svg>
