<svg width="29" height="29" viewBox="0 0 29 29" fill="none" xmlns="http://www.w3.org/2000/svg">
<path d="M0.646447 27.6464C0.451184 27.8417 0.451184 28.1583 0.646447 28.3536C0.841709 28.5488 1.15829 28.5488 1.35355 28.3536L0.646447 27.6464ZM28.3536 1.35355C28.5488 1.15829 28.5488 0.841708 28.3536 0.646447C28.1583 0.451184 27.8417 0.451184 27.6464 0.646447L28.3536 1.35355ZM1.35355 28.3536L28.3536 1.35355L27.6464 0.646447L0.646447 27.6464L1.35355 28.3536Z" fill="black"/>
<path d="M1.35355 0.646447C1.15829 0.451184 0.841709 0.451184 0.646447 0.646447C0.451184 0.841709 0.451184 1.15829 0.646447 1.35355L1.35355 0.646447ZM27.6464 28.3536C27.8417 28.5488 28.1583 28.5488 28.3536 28.3536C28.5488 28.1583 28.5488 27.8417 28.3536 27.6464L27.6464 28.3536ZM0.646447 1.35355L27.6464 28.3536L28.3536 27.6464L1.35355 0.646447L0.646447 1.35355Z" fill="black"/>
</svg>
